<svg xmlns="http://www.w3.org/2000/svg" xmlns:xlink="http://www.w3.org/1999/xlink" width="46" height="53" viewBox="0 0 46 53">
  <defs>
    <clipPath id="clip-path">
      <rect id="Rectangle_17976" data-name="Rectangle 17976" width="46" height="53" transform="translate(1572 2321)"/>
    </clipPath>
  </defs>
  <g id="Capability_Assement" data-name="Capability Assement" transform="translate(-1572 -2321)" clip-path="url(#clip-path)">
    <path id="Path_45756" data-name="Path 45756" d="M46.783,75.247V72.531a.6.6,0,1,1,1.2,0v2.717h8.291V72.531a.6.6,0,1,1,1.2,0v2.717h2.324V70.18a3.9,3.9,0,0,0-3.886-3.886H48.345a3.9,3.9,0,0,0-3.886,3.886v5.068ZM20.247,57.74v-22a.6.6,0,0,1,1.2,0V57.839a1.5,1.5,0,0,1,.351.261l.328.329a8.709,8.709,0,0,1,1.937-.8v-.464a1.51,1.51,0,0,1,.926-1.389V53.229a.6.6,0,0,1,.6-.6h5.134a.6.6,0,0,1,.6.6v4.677a1.511,1.511,0,0,1,1.669.011V48.911a.6.6,0,0,1,.6-.6h5.135a.6.6,0,0,1,.6.6V70.444h1.669V51.235a.6.6,0,0,1,.6-.6h5.135a.6.6,0,0,1,.6.6V65.2a5.058,5.058,0,0,1,1.022-.1h.647V62.521a4.34,4.34,0,0,1,0-6v-10.8a.6.6,0,0,1,.6-.6h5.135a.6.6,0,0,1,.6.6V56.583a4.34,4.34,0,0,1,0,5.87V65.1h.584a5.1,5.1,0,0,1,5.084,5.084v5.666a.6.6,0,0,1-.6.6H43.86a.6.6,0,0,1-.6-.6v-4.2H34.874a1.509,1.509,0,0,1-.43,1.235L33.211,74.11a1.507,1.507,0,0,1-2.128,0l-.328-.328a8.71,8.71,0,0,1-1.937.8v.464a1.508,1.508,0,0,1-1.505,1.505H25.567a1.508,1.508,0,0,1-1.5-1.505v-.464a8.69,8.69,0,0,1-1.937-.8l-.328.328a1.507,1.507,0,0,1-2.128,0l-1.234-1.233a1.507,1.507,0,0,1,0-2.128l.329-.329a8.713,8.713,0,0,1-.8-1.937H17.5a1.508,1.508,0,0,1-1.5-1.505V65.233a1.508,1.508,0,0,1,1.5-1.5h.465a8.684,8.684,0,0,1,.8-1.937l-.328-.328a1.508,1.508,0,0,1,0-2.128L19.669,58.1a1.494,1.494,0,0,1,.579-.36Zm13.893,12.7h3.983V49.51H34.187v9.566l.258.258a1.508,1.508,0,0,1,0,2.128l-.328.328a8.665,8.665,0,0,1,.8,1.937h.464a1.508,1.508,0,0,1,1.5,1.506v1.744a1.508,1.508,0,0,1-1.505,1.505h-.464a8.71,8.71,0,0,1-.8,1.937l.025.024Zm8.048,0V51.834h3.937V65.61a5.123,5.123,0,0,0-1.371.98,5.068,5.068,0,0,0-1.493,3.59v.264Zm8-7.04V65.1h3.937V63.372a4.348,4.348,0,0,1-3.937.032Zm3.937-7.739V46.315H50.189v9.318a4.348,4.348,0,0,1,3.937.032Zm-.24-16.951-.194,1.717a.6.6,0,1,0,1.188.131l.372-3.283a.6.6,0,0,0-.505-.678l-2.9-.426a.6.6,0,1,0-.173,1.184l1.658.244-9.449,8.677-8.329-3.458a.6.6,0,0,0-.579.068l-8.706,5.939a.6.6,0,1,0,.674.987l8.453-5.766,8.383,3.48a.6.6,0,0,0,.634-.112ZM22.509,70.035a5.209,5.209,0,0,0,3.93,1.628,5.558,5.558,0,1,0-3.93-1.628Zm2.478.183V61.993a4.362,4.362,0,0,0,0,8.225Zm1.2-8.465v8.7a4.36,4.36,0,1,0,0-8.7Zm3.937-3.647V53.828H26.186v1.828h1.126a1.508,1.508,0,0,1,1.5,1.506v.464a8.69,8.69,0,0,1,.991.342q.159.066.315.138Zm-2.811-1.251H25.567a.309.309,0,0,0-.307.307l0,.929a.6.6,0,0,1-.468.582,7.593,7.593,0,0,0-2.395.982.6.6,0,0,1-.788-.051l-.657-.657a.31.31,0,0,0-.435,0L19.281,60.18a.31.31,0,0,0,0,.435l.656.659a.6.6,0,0,1,.081.742,7.62,7.62,0,0,0-1,2.389.6.6,0,0,1-.594.52H17.5a.309.309,0,0,0-.307.307v1.744a.31.31,0,0,0,.307.307l.929,0a.6.6,0,0,1,.582.469,7.6,7.6,0,0,0,.982,2.395.6.6,0,0,1-.051.788l-.657.657a.31.31,0,0,0,0,.435l1.234,1.234a.31.31,0,0,0,.435,0l.659-.656a.6.6,0,0,1,.742-.081,7.616,7.616,0,0,0,2.389,1,.6.6,0,0,1,.52.594v.929a.309.309,0,0,0,.307.307h1.745a.31.31,0,0,0,.307-.307l0-.929a.6.6,0,0,1,.468-.582,7.588,7.588,0,0,0,2.394-.982.6.6,0,0,1,.788.052l.657.657a.31.31,0,0,0,.435,0L33.6,72.03a.306.306,0,0,0,.089-.217A.3.3,0,0,0,33.6,71.6l-.656-.659a.6.6,0,0,1-.081-.742,7.588,7.588,0,0,0,1-2.389.6.6,0,0,1,.594-.52h.929a.31.31,0,0,0,.307-.307V65.233a.309.309,0,0,0-.307-.307l-.929,0a.6.6,0,0,1-.582-.468,7.628,7.628,0,0,0-.982-2.394.6.6,0,0,1,.051-.788l.657-.657a.31.31,0,0,0,0-.435l-1.234-1.234a.31.31,0,0,0-.434,0l-.659.656a.6.6,0,0,1-.742.081,7.6,7.6,0,0,0-2.389-1,.6.6,0,0,1-.52-.594v-.93a.309.309,0,0,0-.307-.307Zm24.814-.479a3.133,3.133,0,1,0,2.225.918,3.143,3.143,0,0,0-2.225-.918Z" transform="translate(1557.009 2291.855)" stroke="#000" stroke-linecap="round" stroke-linejoin="round" stroke-width="0.1" fill-rule="evenodd"/>
  </g>
</svg>
