<svg xmlns="http://www.w3.org/2000/svg" xmlns:xlink="http://www.w3.org/1999/xlink" width="46" height="53" viewBox="0 0 46 53">
  <defs>
    <clipPath id="clip-path">
      <rect id="Rectangle_17977" data-name="Rectangle 17977" width="46" height="53" transform="translate(1572 2321)"/>
    </clipPath>
  </defs>
  <g id="Indepent_Safety_Assessment" data-name="Indepent Safety Assessment" transform="translate(-1572 -2321)" clip-path="url(#clip-path)">
    <path id="Path_45757" data-name="Path 45757" d="M101.592,23.059a2.647,2.647,0,0,0-1.7-1.229V20.462a2.026,2.026,0,0,0-3.31-1.57,2.1,2.1,0,0,0-3.5-.05,2,2,0,0,0-1.3-.475l-.079,0a8.842,8.842,0,0,0,1.589-4.227,6.434,6.434,0,0,0-.551-4,2.648,2.648,0,0,0-1.7-1.229V7.541a2.026,2.026,0,0,0-3.31-1.57,2.1,2.1,0,0,0-3.5-.05,2.005,2.005,0,0,0-3.084.621A1.866,1.866,0,0,0,78.258,8.11v2.457a1.854,1.854,0,0,0,.188.811c-.706,5.886.078,7.19.708,8.238a2.63,2.63,0,0,1,.484,1.679l-.027,1.778a1.842,1.842,0,0,0-.934,1.6v.379a2.031,2.031,0,0,0-.484.294,2.1,2.1,0,0,0-3.5-.05,2.006,2.006,0,0,0-3.084.621,1.866,1.866,0,0,0-2.881,1.568v2.457a1.854,1.854,0,0,0,.188.811c-.706,5.885.078,7.19.708,8.238a2.63,2.63,0,0,1,.484,1.679l-.027,1.778a1.843,1.843,0,0,0-.934,1.6v5.415A.538.538,0,0,0,69.68,50H98.61a.538.538,0,0,0,.538-.538V37.593a1.841,1.841,0,0,0-.871-1.563,4.756,4.756,0,0,1,.537-2.022,16.569,16.569,0,0,1,1.345-2.153,9.306,9.306,0,0,0,1.983-4.794,6.435,6.435,0,0,0-.551-4Zm-3.729-3.55a.953.953,0,0,1,.952.952v1.257h-1.9V20.462A.953.953,0,0,1,97.863,19.51Zm-4.074.51a1.023,1.023,0,1,1,2.046,0v1.7h-.682a2.09,2.09,0,0,0-1.364.506v-2.2Zm-1.076.355v2.949a.933.933,0,0,1-1.866,0V20.375a.933.933,0,0,1,1.866,0Zm-2.934,3.113h-.007a.793.793,0,0,1-1.585,0V21.031a.793.793,0,1,1,1.585,0v2.293c0,.055,0,.11.007.164Zm-.769-16.9a.953.953,0,0,1,.952.952V8.8h-1.9V7.541A.953.953,0,0,1,89.01,6.589ZM85.96,6.076A1.024,1.024,0,0,1,86.983,7.1V8.8H86.3a2.09,2.09,0,0,0-1.364.506V7.1A1.024,1.024,0,0,1,85.96,6.076ZM82,7.454a.933.933,0,0,1,1.865,0V10.4A.933.933,0,0,1,82,10.4V7.454Zm-2.661.656a.793.793,0,0,1,1.585,0V10.4c0,.055,0,.11.007.164h-.007a.793.793,0,1,1-1.585,0V8.11Zm.091,4.187a1.858,1.858,0,0,0,2.082-.476,2,2,0,0,0,2.887-.048A2.1,2.1,0,0,0,86.3,13h1.272a6.92,6.92,0,0,0-2.627,4.364.538.538,0,0,0,1.062.172,6.187,6.187,0,0,1,2.542-3.955l.242-.206c.459-.395.457-.744.374-.968-.119-.321-.426-.483-.912-.483H86.3a1.023,1.023,0,1,1,0-2.046h3.767a1.844,1.844,0,0,1,1.746.814A5.4,5.4,0,0,1,92.223,14a8.207,8.207,0,0,1-1.8,4.311c-.224.318-.454.645-.689,1.01a1.865,1.865,0,0,0-2.628,1.706v1.8H80.69l.023-1.52a3.668,3.668,0,0,0-.638-2.249c-.518-.862-1.157-1.925-.651-6.764Zm1,15.875h-1.9V26.916a.952.952,0,1,1,1.9,0Zm-4-2.722a1.024,1.024,0,0,1,1.023,1.023v1.7h-.682a2.09,2.09,0,0,0-1.364.506v-2.2a1.024,1.024,0,0,1,1.023-1.023ZM72.46,26.829a.933.933,0,0,1,1.865,0v2.949a.933.933,0,0,1-1.865,0Zm-2.661.656a.793.793,0,1,1,1.585,0v2.293c0,.055,0,.11.007.164h-.007a.793.793,0,1,1-1.585,0V27.485Zm.091,4.187a1.858,1.858,0,0,0,2.082-.476,2,2,0,0,0,2.887-.048,2.1,2.1,0,0,0,1.906,1.222h1.272a6.92,6.92,0,0,0-2.627,4.364.538.538,0,1,0,1.062.172,6.187,6.187,0,0,1,2.543-3.955l.242-.206c.459-.395.457-.744.374-.968-.119-.321-.426-.483-.912-.483H76.765a1.023,1.023,0,1,1,0-2.046h3.767a1.844,1.844,0,0,1,1.746.814,5.4,5.4,0,0,1,.409,3.318,8.207,8.207,0,0,1-1.8,4.311,17.692,17.692,0,0,0-1.424,2.285,5.792,5.792,0,0,0-.641,2.23H71.155l.023-1.52a3.667,3.667,0,0,0-.638-2.249c-.518-.862-1.157-1.925-.651-6.764Zm9.8,17.252H70.218V44.048a.768.768,0,0,1,.767-.767h7.934a.768.768,0,0,1,.767.767v4.877ZM87.53,37.593V48.924H80.761V44.048a1.841,1.841,0,0,0-.871-1.563,4.75,4.75,0,0,1,.537-2.022,16.555,16.555,0,0,1,1.345-2.153,9.306,9.306,0,0,0,1.983-4.794,6.434,6.434,0,0,0-.551-4,2.648,2.648,0,0,0-1.7-1.229V26.916a2.03,2.03,0,0,0-1.75-2.008v-.235a.768.768,0,0,1,.767-.767h6.64a1.852,1.852,0,0,0,.139.393c-.706,5.886.078,7.19.708,8.238a2.63,2.63,0,0,1,.484,1.679l-.027,1.778a1.842,1.842,0,0,0-.934,1.6ZM98.073,48.924H88.605V37.593a.768.768,0,0,1,.767-.767h7.934a.768.768,0,0,1,.767.767Zm3-22a8.207,8.207,0,0,1-1.8,4.311,17.7,17.7,0,0,0-1.424,2.285,5.8,5.8,0,0,0-.641,2.23H89.543l.023-1.52a3.668,3.668,0,0,0-.638-2.249c-.518-.862-1.157-1.925-.651-6.764a1.858,1.858,0,0,0,2.082-.476,2,2,0,0,0,2.887-.048,2.1,2.1,0,0,0,1.906,1.222h1.272A6.92,6.92,0,0,0,93.8,30.28a.538.538,0,1,0,1.062.172A6.187,6.187,0,0,1,97.4,26.5l.242-.206c.459-.395.457-.744.374-.968-.119-.321-.426-.483-.912-.483H95.153a1.023,1.023,0,1,1,0-2.046H98.92a1.844,1.844,0,0,1,1.746.814,5.4,5.4,0,0,1,.409,3.318Z" transform="translate(1509.368 2320)" stroke="#000" stroke-linecap="round" stroke-linejoin="round" stroke-width="0.2"/>
  </g>
</svg>
