<svg xmlns="http://www.w3.org/2000/svg" xmlns:xlink="http://www.w3.org/1999/xlink" width="46" height="53" viewBox="0 0 46 53">
  <defs>
    <clipPath id="clip-path">
      <rect id="Rectangle_17979" data-name="Rectangle 17979" width="46" height="53" transform="translate(1572 2321)"/>
    </clipPath>
  </defs>
  <g id="Indepent_Review" data-name="Indepent Review" transform="translate(-1572 -2321)" clip-path="url(#clip-path)">
    <g id="vision_x2C__page_x2C__document_x2C__eye_x2C__review" transform="translate(1572 2324)">
      <g id="XMLID_197_" transform="translate(1 1)">
        <g id="XMLID_2199_" transform="translate(21 22.5)">
          <g id="Group_65631" data-name="Group 65631">
            <path id="Path_45761" data-name="Path 45761" d="M23.25,32.5a8.25,8.25,0,1,1,8.25-8.25A8.26,8.26,0,0,1,23.25,32.5Zm0-15A6.75,6.75,0,1,0,30,24.25,6.758,6.758,0,0,0,23.25,17.5Z" transform="translate(-15 -16)" stroke="#000" stroke-linecap="round" stroke-linejoin="round" stroke-width="0.1"/>
          </g>
        </g>
        <g id="XMLID_2194_" transform="translate(26.25 27.75)">
          <g id="Group_65632" data-name="Group 65632">
            <path id="Path_45762" data-name="Path 45762" d="M21.5,25.5a3,3,0,1,1,3-3A3,3,0,0,1,21.5,25.5Zm0-4.5A1.5,1.5,0,1,0,23,22.5,1.5,1.5,0,0,0,21.5,21Z" transform="translate(-18.5 -19.5)" stroke="#000" stroke-linecap="round" stroke-linejoin="round" stroke-width="0.1"/>
          </g>
        </g>
        <g id="XMLID_2193_" transform="translate(13.499 20.173)">
          <g id="Group_65633" data-name="Group 65633">
            <path id="Path_45763" data-name="Path 45763" d="M25.75,35.6c-9.565,0-15.4-9.781-15.648-10.2a.75.75,0,0,1,0-.754c.241-.417,6.016-10.2,15.649-10.2S41.156,24.233,41.4,24.65a.75.75,0,0,1,0,.754C41.153,25.82,35.315,35.6,25.75,35.6ZM11.637,25.024C12.793,26.785,18.06,34.1,25.75,34.1s12.958-7.317,14.113-9.079c-1.146-1.762-6.37-9.075-14.113-9.075C17.992,15.947,12.78,23.26,11.637,25.024Z" transform="translate(-10 -14.449)" stroke="#000" stroke-linecap="round" stroke-linejoin="round" stroke-width="0.1"/>
          </g>
        </g>
        <g id="XMLID_698_">
          <g id="XMLID_1605_" transform="translate(0 9)">
            <g id="Group_65634" data-name="Group 65634">
              <path id="Path_45764" data-name="Path 45764" d="M36.25,43H1.75A.75.75,0,0,1,1,42.25V7.75a.75.75,0,0,1,1.5,0V41.5H36.25a.75.75,0,0,1,0,1.5Z" transform="translate(-1 -7)" stroke="#000" stroke-linecap="round" stroke-linejoin="round" stroke-width="0.1"/>
            </g>
          </g>
          <g id="XMLID_3233_" transform="translate(9 0)">
            <g id="Group_65635" data-name="Group 65635">
              <path id="Path_45765" data-name="Path 45765" d="M33.25,19.75A.75.75,0,0,1,32.5,19V2.5H7.75a.75.75,0,0,1,0-1.5h25.5a.75.75,0,0,1,.75.75V19A.75.75,0,0,1,33.25,19.75Z" transform="translate(-7 -1)" stroke="#000" stroke-linecap="round" stroke-linejoin="round" stroke-width="0.1"/>
            </g>
          </g>
          <g id="XMLID_700_" transform="translate(6.031 13.5)">
            <g id="XMLID_1498_" transform="translate(0 12)">
              <g id="Group_65636" data-name="Group 65636">
                <path id="Path_45766" data-name="Path 45766" d="M11.739,19.5H5.771a.75.75,0,1,1,0-1.5h5.968a.75.75,0,1,1,0,1.5Z" transform="translate(-5.021 -18)" stroke="#000" stroke-linecap="round" stroke-linejoin="round" stroke-width="0.1"/>
              </g>
            </g>
            <g id="XMLID_198_" transform="translate(0 9)">
              <g id="Group_65637" data-name="Group 65637">
                <path id="Path_45767" data-name="Path 45767" d="M14.739,17.5H5.771a.75.75,0,1,1,0-1.5h8.968a.75.75,0,0,1,0,1.5Z" transform="translate(-5.021 -16)" stroke="#000" stroke-linecap="round" stroke-linejoin="round" stroke-width="0.1"/>
              </g>
            </g>
            <g id="XMLID_1480_" transform="translate(0 6)">
              <g id="Group_65638" data-name="Group 65638">
                <path id="Path_45768" data-name="Path 45768" d="M10.239,15.5H5.771a.75.75,0,1,1,0-1.5h4.468a.75.75,0,1,1,0,1.5Z" transform="translate(-5.021 -14)" stroke="#000" stroke-linecap="round" stroke-linejoin="round" stroke-width="0.1"/>
              </g>
            </g>
            <g id="XMLID_1465_" transform="translate(7.5 6)">
              <g id="Group_65639" data-name="Group 65639">
                <path id="Path_45769" data-name="Path 45769" d="M16.739,15.5H10.771a.75.75,0,0,1,0-1.5h5.968a.75.75,0,1,1,0,1.5Z" transform="translate(-10.021 -14)" stroke="#000" stroke-linecap="round" stroke-linejoin="round" stroke-width="0.1"/>
              </g>
            </g>
            <g id="XMLID_1457_" transform="translate(18 3)">
              <g id="Group_65640" data-name="Group 65640">
                <path id="Path_45770" data-name="Path 45770" d="M22.239,13.5H17.771a.75.75,0,0,1,0-1.5h4.468a.75.75,0,0,1,0,1.5Z" transform="translate(-17.021 -12)" stroke="#000" stroke-linecap="round" stroke-linejoin="round" stroke-width="0.1"/>
              </g>
            </g>
            <g id="XMLID_947_" transform="translate(0 3)">
              <g id="Group_65641" data-name="Group 65641">
                <path id="Path_45771" data-name="Path 45771" d="M20.739,13.5H5.771a.75.75,0,1,1,0-1.5H20.739a.75.75,0,0,1,0,1.5Z" transform="translate(-5.021 -12)" stroke="#000" stroke-linecap="round" stroke-linejoin="round" stroke-width="0.1"/>
              </g>
            </g>
            <g id="XMLID_762_" transform="translate(0)">
              <g id="Group_65642" data-name="Group 65642">
                <path id="Path_45772" data-name="Path 45772" d="M16.239,11.5H5.771a.75.75,0,1,1,0-1.5H16.239a.75.75,0,1,1,0,1.5Z" transform="translate(-5.021 -10)" stroke="#000" stroke-linecap="round" stroke-linejoin="round" stroke-width="0.1"/>
              </g>
            </g>
            <g id="XMLID_1609_" transform="translate(13.5)">
              <g id="Group_65643" data-name="Group 65643">
                <path id="Path_45773" data-name="Path 45773" d="M23.739,11.5H14.771a.75.75,0,1,1,0-1.5h8.968a.75.75,0,0,1,0,1.5Z" transform="translate(-14.021 -10)" stroke="#000" stroke-linecap="round" stroke-linejoin="round" stroke-width="0.1"/>
              </g>
            </g>
          </g>
          <g id="XMLID_1610_" transform="translate(0.032)">
            <g id="Group_65644" data-name="Group 65644">
              <path id="Path_45774" data-name="Path 45774" d="M10.739,11.5H1.771A.75.75,0,0,1,1.24,10.22l8.968-9A.75.75,0,0,1,11.272,2.28L3.578,10H9.989V2.267a.75.75,0,1,1,1.5,0V10.75a.75.75,0,0,1-.75.75Z" transform="translate(-1.021 -1)" stroke="#000" stroke-linecap="round" stroke-linejoin="round" stroke-width="0.1"/>
            </g>
          </g>
        </g>
      </g>
    </g>
  </g>
</svg>
