<svg xmlns="http://www.w3.org/2000/svg" xmlns:xlink="http://www.w3.org/1999/xlink" width="46" height="53" viewBox="0 0 46 53">
  <defs>
    <clipPath id="clip-path">
      <rect id="Rectangle_17988" data-name="Rectangle 17988" width="46" height="53" transform="translate(1572 2321)" fill="#fff"/>
    </clipPath>
  </defs>
  <g id="No_Of_Vendors" data-name="No Of  Vendors" transform="translate(-1572 -2321)" clip-path="url(#clip-path)">
    <g id="Group_65678" data-name="Group 65678" transform="translate(1567.75 2320)">
      <path id="Path_45821" data-name="Path 45821" d="M5.332,14.135l-.027.082a.683.683,0,0,0-.045.236c0,.018-.009.036-.009.055V49.536a.912.912,0,0,0,.909.909H25.437a.909.909,0,1,0,0-1.818H7.059V15.416h7.689a.912.912,0,0,0,.909-.909V6.818H38.243V24.723a.909.909,0,1,0,1.818,0V5.909A.912.912,0,0,0,39.152,5h-24.4c-.018,0-.036.009-.055.009a1.085,1.085,0,0,0-.236.045l-.091.027a.761.761,0,0,0-.264.182l-8.6,8.6a1.066,1.066,0,0,0-.173.273ZM13.839,8.1v5.5H8.34Z" transform="translate(0)" fill="#fff"/>
      <path id="Path_45822" data-name="Path 45822" d="M31.359,52.7H51.637a.912.912,0,0,0,.909-.909V47.233a6.509,6.509,0,0,0-6.5-6.5h-.055a6.435,6.435,0,1,0-8.98,0h-.064a6.5,6.5,0,0,0-6.5,6.5v4.554A.912.912,0,0,0,31.359,52.7Zm5.526-16.569a4.617,4.617,0,1,1,4.781,4.6h-.3a4.61,4.61,0,0,1-4.481-4.6ZM32.268,47.233a4.686,4.686,0,0,1,4.681-4.681h4.226c.109.009.209.018.318.018s.209-.009.318-.018h4.236a4.686,4.686,0,0,1,4.681,4.681v3.645h-2.8V48.842a.909.909,0,1,0-1.818,0v2.036H36.6V48.842a.909.909,0,1,0-1.818,0v2.036H32.268Z" transform="translate(-2.296 -2.25)" fill="#fff"/>
      <path id="Path_45831" data-name="Path 45831" d="M31.05,44.835H44.432a.6.6,0,0,0,.6-.6v-3a4.29,4.29,0,0,0-4.289-4.277h-.036a4.247,4.247,0,1,0-5.926,0h-.042A4.286,4.286,0,0,0,30.45,41.24v3A.6.6,0,0,0,31.05,44.835ZM34.7,33.93a3.047,3.047,0,1,1,3.155,3.027h-.2A3.038,3.038,0,0,1,34.7,33.93ZM31.65,41.24a3.088,3.088,0,0,1,3.089-3.081h2.789c.072.006.138.012.21.012s.138-.006.21-.012h2.8a3.088,3.088,0,0,1,3.089,3.081v2.4H41.985V42.3a.6.6,0,0,0-1.2,0v1.34H34.511V42.3a.6.6,0,0,0-1.2,0v1.34H31.65Z" transform="translate(-15.663 5.449)" fill="#fff" stroke="#fff" stroke-linecap="round" stroke-linejoin="round" stroke-width="0.3"/>
      <path id="Path_45823" data-name="Path 45823" d="M12.619,20.77a.909.909,0,1,0,0,1.818H33.451a.909.909,0,1,0,0-1.818Z" transform="translate(-0.588 -1.437)" fill="#fff"/>
      <path id="Path_45824" data-name="Path 45824" d="M21.82,31.139c0-.5-.228-.909-.508-.909H12.218c-.279,0-.508.409-.508.909s.228.909.508.909h9.095C21.592,32.048,21.82,31.639,21.82,31.139Z" transform="translate(-0.588 -2.298)" fill="#fff"/>
    </g>
  </g>
</svg>
