<svg xmlns="http://www.w3.org/2000/svg" xmlns:xlink="http://www.w3.org/1999/xlink" width="46" height="53" viewBox="0 0 46 53">
  <defs>
    <clipPath id="clip-path">
      <rect id="Rectangle_17989" data-name="Rectangle 17989" width="46" height="53" transform="translate(1572 2321)" fill="#fff"/>
    </clipPath>
  </defs>
  <g id="No_Of_Client" data-name="No Of Client" transform="translate(-1572 -2321)" clip-path="url(#clip-path)">
    <g id="Group_65679" data-name="Group 65679" transform="translate(1567.75 2320)">
      <path id="Path_45826" data-name="Path 45826" d="M5.332,14.135l-.027.082a.683.683,0,0,0-.045.236c0,.018-.009.036-.009.055V49.536a.912.912,0,0,0,.909.909H25.437a.909.909,0,1,0,0-1.818H7.059V15.416h7.689a.912.912,0,0,0,.909-.909V6.818H38.243V24.723a.909.909,0,1,0,1.818,0V5.909A.912.912,0,0,0,39.152,5h-24.4c-.018,0-.036.009-.055.009a1.085,1.085,0,0,0-.236.045l-.091.027a.761.761,0,0,0-.264.182l-8.6,8.6a1.066,1.066,0,0,0-.173.273ZM13.839,8.1v5.5H8.34Z" transform="translate(0)" fill="#fff"/>
      <path id="Path_45827" data-name="Path 45827" d="M31.359,52.7H51.637a.912.912,0,0,0,.909-.909V47.233a6.509,6.509,0,0,0-6.5-6.5h-.055a6.435,6.435,0,1,0-8.98,0h-.064a6.5,6.5,0,0,0-6.5,6.5v4.554A.912.912,0,0,0,31.359,52.7Zm5.526-16.569a4.617,4.617,0,1,1,4.781,4.6h-.3a4.61,4.61,0,0,1-4.481-4.6ZM32.268,47.233a4.686,4.686,0,0,1,4.681-4.681h4.226c.109.009.209.018.318.018s.209-.009.318-.018h4.236a4.686,4.686,0,0,1,4.681,4.681v3.645h-2.8V48.842a.909.909,0,1,0-1.818,0v2.036H36.6V48.842a.909.909,0,1,0-1.818,0v2.036H32.268Z" transform="translate(-2.296 -2.25)" fill="#fff"/>
      <path id="Path_45828" data-name="Path 45828" d="M12.619,20.77a.909.909,0,1,0,0,1.818H33.451a.909.909,0,1,0,0-1.818Z" transform="translate(-0.588 -1.437)" fill="#fff"/>
      <path id="Path_45829" data-name="Path 45829" d="M29.815,31.139a.912.912,0,0,0-.909-.909H12.619a.909.909,0,1,0,0,1.818H28.907A.912.912,0,0,0,29.815,31.139Z" transform="translate(-0.588 -2.298)" fill="#fff"/>
      <path id="Path_45830" data-name="Path 45830" d="M26.18,39.69H12.619a.909.909,0,1,0,0,1.818H26.18a.909.909,0,1,0,0-1.818Z" transform="translate(-0.588 -3.16)" fill="#fff"/>
    </g>
  </g>
</svg>
