<svg xmlns="http://www.w3.org/2000/svg" xmlns:xlink="http://www.w3.org/1999/xlink" width="46" height="53" viewBox="0 0 46 53">
  <defs>
    <clipPath id="clip-path">
      <rect id="Rectangle_17975" data-name="Rectangle 17975" width="46" height="53" transform="translate(1572 2321)"/>
    </clipPath>
  </defs>
  <g id="Third_Party_Inspection" data-name="Third Party Inspection" transform="translate(-1572 -2321)" clip-path="url(#clip-path)">
    <g id="Group_65629" data-name="Group 65629" transform="translate(1572 2324)">
      <path id="Path_45730" data-name="Path 45730" d="M46.451,10.134a.752.752,0,0,0-.04-.2c-.008-.025-.015-.049-.026-.074a.787.787,0,0,0-.157-.229l-9.4-9.4A.771.771,0,0,0,36.6.073c-.023-.011-.047-.017-.071-.026a.771.771,0,0,0-.205-.041c-.013,0-.028-.006-.044-.006h-23.5A3.922,3.922,0,0,0,8.861,3.917V9.682a14.854,14.854,0,0,0,0,27.182v6.22A3.922,3.922,0,0,0,12.777,47H42.544a3.921,3.921,0,0,0,3.917-3.917v-32.9c0-.017-.008-.032-.01-.049ZM43.786,9.4H37.844a.783.783,0,0,1-.783-.783V2.674ZM1.583,23.273A13.3,13.3,0,0,1,14.9,9.956q.668,0,1.323.064A13.28,13.28,0,0,1,28.052,21.278a13.448,13.448,0,0,1,.164,1.994,13.316,13.316,0,0,1-26.633,0ZM24,35.04c.107-.083.213-.165.318-.251a14.659,14.659,0,0,0,1.11-.991,14.724,14.724,0,0,0,.991-1.109c.085-.1.168-.212.251-.319.095-.124.2-.241.288-.368l6.678,6.686a2.332,2.332,0,0,1,0,3.314,2.386,2.386,0,0,1-3.317,0L23.63,35.328c.126-.092.244-.194.368-.288ZM42.544,45.433H12.777a2.35,2.35,0,0,1-2.35-2.35V37.475c.049.016.1.026.149.041.125.038.252.069.379.1.293.078.588.157.887.215.146.031.293.059.441.085.3.052.6.094.9.129.135.015.268.034.4.046.434.037.871.061,1.312.061a14.785,14.785,0,0,0,7.379-1.966L29.2,43.109a3.917,3.917,0,1,0,5.536-5.531l-6.923-6.927a14.781,14.781,0,0,0,1.966-7.378q0-.744-.072-1.476A14.88,14.88,0,0,0,14.9,8.389c-.441,0-.878.024-1.312.061-.135.012-.27.031-.4.046q-.452.05-.9.129-.223.039-.445.085c-.295.061-.587.133-.877.213-.13.035-.26.067-.392.106-.049.015-.1.025-.146.041V3.917a2.35,2.35,0,0,1,2.35-2.35H35.494v7.05a2.35,2.35,0,0,0,2.35,2.35h7.05V43.083a2.35,2.35,0,0,1-2.35,2.35Zm0,0"/>
      <path id="Path_45731" data-name="Path 45731" d="M157.288,48.783A.783.783,0,0,0,156.5,48H139.271a.783.783,0,1,0,0,1.567H156.5A.783.783,0,0,0,157.288,48.783Zm0,0" transform="translate(-124.927 -43.3)"/>
      <path id="Path_45732" data-name="Path 45732" d="M324.671,192h-9.4a.783.783,0,1,0,0,1.567h9.4a.783.783,0,0,0,0-1.567Zm0,0" transform="translate(-283.694 -173.2)"/>
      <path id="Path_45733" data-name="Path 45733" d="M324.671,240h-9.4a.783.783,0,1,0,0,1.567h9.4a.783.783,0,0,0,0-1.567Zm0,0" transform="translate(-283.694 -216.5)"/>
      <path id="Path_45734" data-name="Path 45734" d="M318.238,288.783a.783.783,0,0,0-.783-.783H307.271a.783.783,0,0,0,0,1.567h10.183A.783.783,0,0,0,318.238,288.783Zm0,0" transform="translate(-276.478 -259.8)"/>
      <path id="Path_45735" data-name="Path 45735" d="M347.1,336.783a.783.783,0,0,0-.783-.783h-7.05a.783.783,0,0,0,0,1.567h7.05A.783.783,0,0,0,347.1,336.783Zm0,0" transform="translate(-305.344 -303.1)"/>
      <path id="Path_45736" data-name="Path 45736" d="M258.321,96.783a.783.783,0,0,0-.783-.783h-6.267a.783.783,0,0,0,0,1.567h6.267A.783.783,0,0,0,258.321,96.783Zm0,0" transform="translate(-225.961 -86.6)"/>
      <path id="Path_45737" data-name="Path 45737" d="M303.8,144.783a.783.783,0,0,0-.783-.783h-11.75a.783.783,0,0,0,0,1.567h11.75A.783.783,0,0,0,303.8,144.783Zm0,0" transform="translate(-262.044 -129.9)"/>
      <path id="Path_45738" data-name="Path 45738" d="M115.271,185.567h5.483a.783.783,0,1,0,0-1.567h-5.483a.783.783,0,1,0,0,1.567Zm0,0" transform="translate(-103.278 -165.983)"/>
      <path id="Path_45739" data-name="Path 45739" d="M95.8,232.783a.783.783,0,0,0-.783-.783H83.271a.783.783,0,1,0,0,1.567h11.75A.783.783,0,0,0,95.8,232.783Zm0,0" transform="translate(-74.411 -209.283)"/>
      <path id="Path_45740" data-name="Path 45740" d="M120.755,280h-5.483a.783.783,0,1,0,0,1.567h5.483a.783.783,0,1,0,0-1.567Zm0,0" transform="translate(-103.278 -252.583)"/>
      <path id="Path_45741" data-name="Path 45741" d="M49.479,139.795a11.488,11.488,0,0,0,4.57-4.433c.062-.108.129-.213.187-.323.03-.057.054-.115.083-.172.119-.229.235-.457.337-.692s.184-.457.267-.687c.024-.067.055-.132.078-.2A11.756,11.756,0,1,0,49.48,139.8Zm-10.458-1.4a10.107,10.107,0,0,1-2.319-1.738,10.314,10.314,0,0,1-1.278-1.555q-.278-.415-.512-.853a10.184,10.184,0,1,1,17.945.045v.007a10.011,10.011,0,0,1-4.114,4.112,10.154,10.154,0,0,1-9.721-.015Zm0,0" transform="translate(-29.004 -106.19)"/>
      <path id="Path_45742" data-name="Path 45742" d="M383.971,384a.783.783,0,0,0-.783.783v3.133a.783.783,0,0,1-.783.783h-3.133a.783.783,0,0,0,0,1.567H382.4a2.35,2.35,0,0,0,2.35-2.35v-3.133A.783.783,0,0,0,383.971,384Zm0,0" transform="translate(-341.427 -346.4)"/>
    </g>
  </g>
</svg>
