<svg id="Accepted_Calls" data-name="Accepted Calls" xmlns="http://www.w3.org/2000/svg" width="35.649" height="41.769" viewBox="0 0 35.649 41.769">
  <path id="Path_1600" data-name="Path 1600" d="M4850.292,308.083a4.07,4.07,0,0,1-4.185-3.548,4.964,4.964,0,0,1-.04-.775v-8.067q0-8.065-.007-16.129a4.449,4.449,0,0,1,1.369-3.317q4.286-4.254,8.536-8.542a4.492,4.492,0,0,1,3.337-1.39c2.2.008,4.389.009,6.573.009h8.431a4.075,4.075,0,0,1,4.35,4.34v1.675l.339.117c1.8.621,2.715,1.729,2.715,3.294s-.914,2.669-2.717,3.3l-.337.117,0,24.577c0,.115,0,.229-.006.342a1.025,1.025,0,0,1-2.045-.024c-.006-.093,0-.185,0-.279V278.371c0-1.027.329-1.358,1.352-1.358l.252,0c.091,0,.183,0,.274-.011a1.258,1.258,0,0,0,.021-2.508,2.444,2.444,0,0,0-.257-.012l-3.716,0q-1.5,0-3-.007a1.032,1.032,0,0,1-1.032-.914,1.019,1.019,0,0,1,.783-1.1,1.97,1.97,0,0,1,.448-.031l4.81,0v-.5c0-.2.007-.39.014-.584a7.482,7.482,0,0,0-.041-1.426,1.883,1.883,0,0,0-1.914-1.54q-3.6,0-7.205-.006-3.293,0-6.584.007a2,2,0,0,0-2,2.127c0,1.556,0,7.255,0,7.255,0,.961-.344,1.3-1.313,1.3h-7.158a2.034,2.034,0,0,0-2.216,2.207V303.8a2.056,2.056,0,0,0,2.24,2.233l24.112,0c.071,0,.145,0,.216.008a1.026,1.026,0,0,1-.02,2.042,1.372,1.372,0,0,1-.156.006h-13.273Zm-.488-31.1h6.936v-6.939Z" transform="translate(-4846.061 -266.316)" fill="#fff"/>
  <path id="Path_1601" data-name="Path 1601" d="M4860.87,294.417a1.251,1.251,0,0,1-.852-.439q-2.164-2.155-4.317-4.318a1.281,1.281,0,0,1-.422-.888.958.958,0,0,1,.312-.684.969.969,0,0,1,.681-.3,1.261,1.261,0,0,1,.865.41c.8.8,1.592,1.594,2.422,2.43l1.412,1.421.347-.458.145-.2a1.732,1.732,0,0,1,.173-.222q2.993-3.005,6-6a1.314,1.314,0,0,1,.895-.432.946.946,0,0,1,.682.306,1.046,1.046,0,0,1-.13,1.579q-3.672,3.679-7.352,7.353A1.268,1.268,0,0,1,4860.87,294.417Z" transform="translate(-4846.097 -266.386)" fill="#fff"/>
</svg>
