<svg xmlns="http://www.w3.org/2000/svg" width="45.591" height="45.617" viewBox="0 0 45.591 45.617">
  <g id="AVG_Fees" data-name="AVG Fees" transform="translate(-0.001)">
    <path id="Path_74803" data-name="Path 74803" d="M24.4,0a9.962,9.962,0,1,0,9.962,9.962A9.987,9.987,0,0,0,24.4,0m7.631,9.962A7.63,7.63,0,1,1,24.4,2.332a7.638,7.638,0,0,1,7.631,7.629" transform="translate(2.092)" fill="#fff"/>
    <path id="Path_74804" data-name="Path 74804" d="M44.224,17.211a3.821,3.821,0,0,0-5.3.41l-4.976,5.112a3.8,3.8,0,0,0-2.744-1.176H21.458a11.6,11.6,0,0,0-4.432-.879h-.018a11.163,11.163,0,0,0-10.082,5.6,2.894,2.894,0,0,0-2.4.839L.34,31.311a1.169,1.169,0,0,0,0,1.645l9.874,9.95a1.168,1.168,0,0,0,1.647.009l4.265-4.2a2.93,2.93,0,0,0,.751-2.846l.789-.762a2.316,2.316,0,0,1,1.628-.661H31.006a8.093,8.093,0,0,0,5.685-2.307c.038-.03.038-.03,1.48-1.755l6.534-7.813a3.8,3.8,0,0,0-.482-5.358M14.48,37.062l-3.431,3.384-8.241-8.3,3.369-3.377A.6.6,0,0,1,6.94,28.7c.053.039.353.34,1.471,1.461,1.061,1.064,2.889,2.9,6.067,6.069a.6.6,0,0,1,0,.835m2.663-14.051a9.238,9.238,0,0,1,3.612.776,1.17,1.17,0,0,0,.468.1h9.988a1.472,1.472,0,1,1,0,2.945h-9.47a1.168,1.168,0,0,0-1.165,1.163,1.167,1.167,0,0,0,1.169,1.168h9.473a3.8,3.8,0,0,0,3.8-3.792c0-.124-.006-.247-.016-.371,5.182-5.328,5.633-5.791,5.681-5.843a1.472,1.472,0,0,1,2.071-.224A1.474,1.474,0,0,1,42.973,21l-7.919,9.47A5.815,5.815,0,0,1,31,32.109H19.3a4.633,4.633,0,0,0-3.253,1.322l-.546.525L8.962,27.42a8.865,8.865,0,0,1,8.02-4.405l.152.007Z" transform="translate(0 2.366)" fill="#fff"/>
    <path id="Path_74805" data-name="Path 74805" d="M26.082,7.216a.183.183,0,0,0-.132-.053H24.938a2.064,2.064,0,0,0-.379-.853h1.378a.182.182,0,0,0,.187-.177V5.518a.182.182,0,0,0-.174-.19H21.01a.182.182,0,0,0-.19.174v.807a.193.193,0,0,0,.19.19h.858q1.25,0,1.583.67H21.01a.182.182,0,0,0-.19.173v.621A.182.182,0,0,0,21,8.151h2.543a1.157,1.157,0,0,1-.607.741,2.679,2.679,0,0,1-1.257.254h-.661a.193.193,0,0,0-.19.19v.742a.181.181,0,0,0,.053.132c.758.8,1.24,1.322,2.448,2.771a.176.176,0,0,0,.148.072h1.155a.173.173,0,0,0,.172-.108.163.163,0,0,0-.024-.2c-1.153-1.413-1.558-1.859-2.216-2.558a3,3,0,0,0,1.633-.65,2.213,2.213,0,0,0,.765-1.385h.995a.182.182,0,0,0,.19-.174V7.352a.186.186,0,0,0-.058-.136" transform="translate(3.016 0.772)" fill="#fff"/>
  </g>
</svg>
