<svg xmlns="http://www.w3.org/2000/svg" xmlns:xlink="http://www.w3.org/1999/xlink" width="35.663" height="41.769" viewBox="0 0 35.663 41.769">
  <defs>
    <clipPath id="clip-path">
      <rect id="Rectangle_17857" data-name="Rectangle 17857" width="35.663" height="41.769" fill="#fff"/>
    </clipPath>
  </defs>
  <g id="Cancelled_Calls" data-name="Cancelled Calls" transform="translate(0 0.001)">
    <g id="Group_3561" data-name="Group 3561" transform="translate(0 0)" clip-path="url(#clip-path)">
      <path id="Path_38555" data-name="Path 38555" d="M4.425,41.767A4.1,4.1,0,0,1,.009,37.346V30.64q0-8.649-.01-17.3A4.59,4.59,0,0,1,1.438,9.862C4.137,7.2,6.9,4.437,9.879,1.423A4.529,4.529,0,0,1,13.3,0c2.232.011,4.441.013,6.65.013l8.266,0a4.077,4.077,0,0,1,4.4,4.389V6.028l.34.116c1.8.614,2.715,1.721,2.714,3.293,0,1.553-.916,2.662-2.718,3.3l-.336.118,0,24.576c0,.115,0,.228-.006.341a1.025,1.025,0,0,1-2.047-.026c-.006-.092,0-.186,0-.279V12.054c0-1.025.329-1.355,1.354-1.355l.256,0a2.473,2.473,0,0,0,.272-.013,1.257,1.257,0,0,0,.017-2.507,2.227,2.227,0,0,0-.258-.013l-3.808,0q-1.454,0-2.906-.007a1.032,1.032,0,0,1-1.031-.916,1.017,1.017,0,0,1,.783-1.1,2.08,2.08,0,0,1,.451-.031l4.808,0v-.5c0-.2.007-.392.014-.586a7.535,7.535,0,0,0-.041-1.426A1.885,1.885,0,0,0,28.55,2.066q-3.449,0-6.9-.006t-6.9.008a2,2,0,0,0-2,2.128c0,1.512,0,7.254,0,7.254,0,.96-.345,1.3-1.315,1.3H4.279A2.034,2.034,0,0,0,2.063,14.96q0,11.262,0,22.522a2.056,2.056,0,0,0,2.243,2.232H28.352a1.93,1.93,0,0,1,.383.023,1.029,1.029,0,0,1,.818,1.076,1.04,1.04,0,0,1-.967.95c-.06,0-.12.006-.179.006ZM3.709,10.672H10.68V3.7Z" transform="translate(0 0)" fill="#fff"/>
      <path id="Path_38556" data-name="Path 38556" d="M11.729,29.633a.981.981,0,0,1-.7-.3,1.014,1.014,0,0,1,.03-1.475c.71-.721,1.429-1.438,2.147-2.154l.984-.983c.078-.078.151-.157.233-.246l.456-.49-3.4-3.4c-.139-.136-.278-.272-.41-.414a1.028,1.028,0,0,1,.713-1.754,1.05,1.05,0,0,1,.731.311c.774.757,1.539,1.524,2.3,2.292l.969.971c.042.042.558.517.558.517l.448-.409c.085-.076.168-.15.248-.23l3.038-3.035a1.322,1.322,0,0,1,.9-.431,1.029,1.029,0,0,1,.979,1.029,1.315,1.315,0,0,1-.424.846c-.79.793-1.584,1.583-2.386,2.381l-1.316,1.31.431.476c.084.094.159.179.241.26,0,0,2.411,2.41,3.032,3.036a1.031,1.031,0,0,1,.111,1.547.962.962,0,0,1-.688.311,1.3,1.3,0,0,1-.887-.424l-3-3c-.079-.078-.761-.714-.761-.714l-2.1,2.148c-.561.568-1.123,1.136-1.7,1.691a1.117,1.117,0,0,1-.774.335" transform="translate(-0.039 -0.066)" fill="#fff"/>
    </g>
  </g>
</svg>
