<svg xmlns="http://www.w3.org/2000/svg" width="45.898" height="53.756" viewBox="0 0 45.898 53.756">
  <g id="Group_3665" data-name="Group 3665" transform="translate(0 0)">
    <path id="Path_1597" data-name="Path 1597" d="M4931.36,272.012l-.436-.147v-2.1a5.25,5.25,0,0,0-5.661-5.65l-10.639.005c-2.843,0-5.685,0-8.559-.017a5.824,5.824,0,0,0-4.4,1.831c-3.837,3.879-7.392,7.431-10.864,10.86a5.909,5.909,0,0,0-1.852,4.482q.028,11.129.013,22.259v8.633a5.275,5.275,0,0,0,5.683,5.688l30.865,0c.075,0,.152,0,.229-.006a1.317,1.317,0,0,0,.192-2.607,2.464,2.464,0,0,0-.492-.031H4894.5a2.647,2.647,0,0,1-2.887-2.872q0-14.494,0-28.986a2.618,2.618,0,0,1,2.852-2.84h9.214c1.25,0,1.692-.439,1.693-1.675,0,0,0-7.389,0-9.334a2.582,2.582,0,0,1,2.574-2.74q4.437-.01,8.877-.009t8.876.008a2.427,2.427,0,0,1,2.468,1.98,9.832,9.832,0,0,1,.051,1.836c-.009.249-.018.5-.018.753v.645h-6.187a2.678,2.678,0,0,0-.581.04,1.31,1.31,0,0,0-1.008,1.417,1.325,1.325,0,0,0,1.327,1.177q1.869.012,3.74.009l4.9-.005a3.186,3.186,0,0,1,.332.015,1.619,1.619,0,0,1-.021,3.228c-.116.012-.232.017-.351.017l-.329,0c-1.319,0-1.741.426-1.741,1.745l0,32.7c0,.119,0,.24,0,.359a1.32,1.32,0,0,0,2.635.033c.012-.146.009-.292.007-.44V280.642l.431-.15c2.32-.814,3.5-2.242,3.5-4.242C4934.855,274.228,4933.681,272.8,4931.36,272.012ZM4902.7,277.84h-8.974l8.974-8.975Z" transform="translate(-4888.955 -264.106)" fill="#fff"/>
    <rect id="Rectangle_327" data-name="Rectangle 327" width="13.937" height="2.614" rx="0.908" transform="translate(19.998 24.543)" fill="#fff"/>
    <rect id="Rectangle_328" data-name="Rectangle 328" width="13.937" height="2.614" rx="0.908" transform="translate(19.998 32.457)" fill="#fff"/>
    <rect id="Rectangle_329" data-name="Rectangle 329" width="13.937" height="2.614" rx="0.908" transform="translate(19.998 40.371)" fill="#fff"/>
    <path id="Union_75" data-name="Union 75" d="M-10622.4-3354.943c-.626-.621-1.307-1.3-2.146-2.144a1.013,1.013,0,0,1-.317-.709.844.844,0,0,1,.267-.6.858.858,0,0,1,.6-.256,1,1,0,0,1,.7.312c.345.344.688.69,1.043,1.048l.555.557a1.34,1.34,0,0,1,.1-.125c.947-.949,1.923-1.925,2.984-2.986a1.019,1.019,0,0,1,.709-.323.846.846,0,0,1,.6.261.891.891,0,0,1-.066,1.315c-1.152,1.155-2.392,2.4-3.65,3.653a.981.981,0,0,1-.69.328A.967.967,0,0,1-10622.4-3354.943Zm0-7.911c-.626-.624-1.307-1.307-2.146-2.147a1.008,1.008,0,0,1-.317-.709.844.844,0,0,1,.267-.6.858.858,0,0,1,.6-.256,1.009,1.009,0,0,1,.7.312c.345.347.688.691,1.043,1.048l.555.557a1.339,1.339,0,0,1,.1-.125c.947-.949,1.923-1.925,2.984-2.984a1.011,1.011,0,0,1,.709-.325.846.846,0,0,1,.6.261.891.891,0,0,1-.066,1.315c-1.152,1.155-2.392,2.4-3.65,3.653a.986.986,0,0,1-.69.331A.978.978,0,0,1-10622.4-3362.855Zm0-7.914c-.626-.624-1.307-1.307-2.146-2.144a1.018,1.018,0,0,1-.317-.712.844.844,0,0,1,.267-.6.858.858,0,0,1,.6-.256,1.009,1.009,0,0,1,.7.312c.345.347.688.691,1.043,1.048l.555.557a1.308,1.308,0,0,1,.1-.125c.947-.949,1.923-1.925,2.984-2.984a1.011,1.011,0,0,1,.709-.325.838.838,0,0,1,.6.264.887.887,0,0,1-.066,1.312c-1.152,1.155-2.392,2.4-3.65,3.653a.985.985,0,0,1-.69.331A.978.978,0,0,1-10622.4-3370.769Z" transform="translate(10633.604 3399.071)" fill="#fff"/>
  </g>
</svg>
