<svg xmlns="http://www.w3.org/2000/svg" width="45.898" height="53.756" viewBox="0 0 45.898 53.756">
  <g id="Group_124" data-name="Group 124" transform="translate(0 0)">
    <path id="Path_1597" data-name="Path 1597" d="M4931.36,272.012l-.436-.147v-2.1a5.25,5.25,0,0,0-5.661-5.65l-10.639.005c-2.843,0-5.685,0-8.559-.017a5.824,5.824,0,0,0-4.4,1.831c-3.837,3.879-7.392,7.431-10.864,10.86a5.909,5.909,0,0,0-1.852,4.482q.028,11.129.013,22.259v8.633a5.275,5.275,0,0,0,5.683,5.688l30.865,0c.075,0,.152,0,.229-.006a1.317,1.317,0,0,0,.192-2.607,2.464,2.464,0,0,0-.492-.031H4894.5a2.647,2.647,0,0,1-2.887-2.872q0-14.494,0-28.986a2.618,2.618,0,0,1,2.852-2.84h9.214c1.25,0,1.692-.439,1.693-1.675,0,0,0-7.389,0-9.334a2.582,2.582,0,0,1,2.574-2.74q4.437-.01,8.877-.009t8.876.008a2.427,2.427,0,0,1,2.468,1.98,9.832,9.832,0,0,1,.051,1.836c-.009.249-.018.5-.018.753v.645h-6.187a2.678,2.678,0,0,0-.581.04,1.31,1.31,0,0,0-1.008,1.417,1.325,1.325,0,0,0,1.327,1.177q1.869.012,3.74.009l4.9-.005a3.186,3.186,0,0,1,.332.015,1.619,1.619,0,0,1-.021,3.228c-.116.012-.232.017-.351.017l-.329,0c-1.319,0-1.741.426-1.741,1.745l0,32.7c0,.119,0,.24,0,.359a1.32,1.32,0,0,0,2.635.033c.012-.146.009-.292.007-.44V280.642l.431-.15c2.32-.814,3.5-2.242,3.5-4.242C4934.855,274.228,4933.681,272.8,4931.36,272.012ZM4902.7,277.84h-8.974l8.974-8.975Z" transform="translate(-4888.955 -264.106)" fill="#fff"/>
    <rect id="Rectangle_327" data-name="Rectangle 327" width="19.892" height="2.614" rx="0.908" transform="translate(11.043 24.543)" fill="#fff"/>
    <rect id="Rectangle_328" data-name="Rectangle 328" width="19.892" height="2.614" rx="0.908" transform="translate(11.043 32.457)" fill="#fff"/>
    <rect id="Rectangle_329" data-name="Rectangle 329" width="19.892" height="2.614" rx="0.908" transform="translate(11.043 40.37)" fill="#fff"/>
  </g>
</svg>
