<svg xmlns="http://www.w3.org/2000/svg" width="46.382" height="54.357" viewBox="0 0 46.382 54.357">
  <path id="Union_81" data-name="Union 81" d="M.017,48.544a5.278,5.278,0,0,1,0-.85V39.129Q.024,28.084.007,17.042A5.872,5.872,0,0,1,1.836,12.6C5.271,9.2,8.784,5.67,12.577,1.821A5.752,5.752,0,0,1,16.923,0c2.84.014,5.65.017,8.46.017H35.9a5.206,5.206,0,0,1,5.6,5.605V7.7l.432.148c2.291.784,3.454,2.2,3.453,4.206,0,1.983-1.165,3.4-3.458,4.208l-.427.15V47.794c0,.146,0,.291-.008.435a1.3,1.3,0,0,1-2.6-.033c-.008-.117,0-.238,0-.356V15.4c0-1.31.418-1.731,1.723-1.731h.326a3.159,3.159,0,0,0,.346-.017,1.606,1.606,0,0,0,.022-3.2,2.821,2.821,0,0,0-.329-.017l-4.846.006q-1.851,0-3.7-.009a1.315,1.315,0,0,1-1.312-1.17,1.3,1.3,0,0,1,1-1.4,2.647,2.647,0,0,1,.575-.039H38.8V7.175c0-.251.009-.5.018-.748a9.653,9.653,0,0,0-.052-1.821,2.4,2.4,0,0,0-2.433-1.966q-4.389-.006-8.775-.008t-8.776.01a2.554,2.554,0,0,0-2.544,2.565c0,.051,0,.1,0,.153,0,1.93,0,9.263,0,9.263,0,1.226-.438,1.662-1.673,1.662H5.452A2.6,2.6,0,0,0,2.632,19.1V47.865a2.617,2.617,0,0,0,2.853,2.851h30.6a2.461,2.461,0,0,1,.487.029,1.308,1.308,0,0,1-.19,2.587c-.076.006-.153.008-.228.008l-30.513,0c-.143.012-.286.017-.427.017A5.223,5.223,0,0,1,.017,48.544ZM4.725,13.631H13.6V4.723ZM21.252,41.48l-.1-.02c-.035-.007-.071-.015-.107-.019-.122-.016-.245-.03-.368-.044-.257-.029-.523-.059-.789-.11A10.389,10.389,0,0,1,14.024,38a10.5,10.5,0,0,1-2.753-8.312,10.1,10.1,0,0,1,2.556-5.937,10.3,10.3,0,0,1,7.9-3.7,12.392,12.392,0,0,1,2.15.195A10.251,10.251,0,0,1,30.168,24c0-.341,0-.682,0-1.023a1.168,1.168,0,0,1,.731-1.1,1.233,1.233,0,0,1,.485-.1,1.127,1.127,0,0,1,.8.342,1.43,1.43,0,0,1,.259.383c.021.039.041.079.063.116l.057.095v3.045l-.026.068c-.038.1-.072.206-.106.31a3.774,3.774,0,0,1-.319.773,2.768,2.768,0,0,1-2.372,1.418c-.36.014-.754.021-1.2.021-.393,0-.786,0-1.179-.01l-.247,0a1.2,1.2,0,0,1,.005-2.4c.288-.005.576-.007.864-.007h.633c-.084-.119-.168-.233-.256-.342a8.111,8.111,0,0,0-4.777-2.949,8.94,8.94,0,0,0-1.793-.188,7.941,7.941,0,0,0-4.7,1.558,8.3,8.3,0,0,0-2.077,11.362,8.044,8.044,0,0,0,5.667,3.606,8.428,8.428,0,0,0,1.183.066c.191,0,.382,0,.572.011H22.5l.187,0a1.531,1.531,0,0,1,.295.024,1.185,1.185,0,0,1,.952,1.256,1.2,1.2,0,0,1-1.106,1.11c-.083.007-.166.016-.248.025l-.141.015Zm4.549-.83a1.227,1.227,0,0,1-1.128-.9,1.174,1.174,0,0,1,.542-1.336,9.347,9.347,0,0,1,.859-.435,1.195,1.195,0,0,1,1.1,2.115c-.277.166-.565.3-.844.434l-.028.013a1.18,1.18,0,0,1-.309.088c-.026,0-.053.009-.078.015l-.056.013Zm2.5-2.644a1.193,1.193,0,0,1-.206-1.682c.191-.255.387-.494.583-.711a1.161,1.161,0,0,1,.863-.382,1.189,1.189,0,0,1,.442.085,1.309,1.309,0,0,1,.8,1.1l.014.112-.047.1c-.022.047-.041.095-.062.142a2.268,2.268,0,0,1-.2.407,5.958,5.958,0,0,1-.416.529l-.086.1a1.24,1.24,0,0,1-.946.454A1.169,1.169,0,0,1,28.3,38.007Zm2.437-3.264a1.229,1.229,0,0,1-.939-1.3v-.059l.017-.057c.02-.068.04-.146.062-.232a6.459,6.459,0,0,1,.264-.843,1.107,1.107,0,0,1,1.042-.661,1.242,1.242,0,0,1,.386.061,1.169,1.169,0,0,1,.8,1.287,6.863,6.863,0,0,1-.275,1.073,1.137,1.137,0,0,1-1.1.753A1.4,1.4,0,0,1,30.734,34.743ZM18.347,33.462a1.188,1.188,0,0,1,.343-1.19l.554-.557q.719-.723,1.441-1.442c.008,0,.01-.012.01-.033,0-1.948,0-2.108,0-4.056A1.208,1.208,0,0,1,21.9,24.9a1.2,1.2,0,0,1,1.192,1.229c0,.176,0,.229,0,.222V28.4q0,1.145,0,2.291a1.32,1.32,0,0,1-.394.97l-.961.966c-.711.715-.63.634-1.345,1.345a1.291,1.291,0,0,1-.91.39A1.173,1.173,0,0,1,18.347,33.462Zm4.744-7.116c0-.335,0-.223,0-.11,0,.053,0,.107,0,.112Z" transform="translate(0.5 0.501)" fill="#fff" stroke="rgba(0,0,0,0)" stroke-width="1"/>
</svg>
