<svg xmlns="http://www.w3.org/2000/svg" width="35.66" height="41.77" viewBox="0 0 35.66 41.77">
  <g id="Group_3663" data-name="Group 3663" transform="translate(-4943.921 -264.255)">
    <path id="Path_1605" data-name="Path 1605" d="M4948.153,306.021a4.068,4.068,0,0,1-4.184-3.547,5.035,5.035,0,0,1-.04-.777v-8.065q0-8.063-.008-16.125a4.454,4.454,0,0,1,1.37-3.318q4.287-4.253,8.538-8.543a4.489,4.489,0,0,1,3.34-1.391c2.206.008,4.39.01,6.574.01h8.431a4.077,4.077,0,0,1,4.35,4.341v1.674l.338.116c1.8.621,2.718,1.729,2.718,3.293s-.913,2.669-2.718,3.3l-.336.116v24.575c0,.114,0,.233-.005.342a1.025,1.025,0,0,1-2.046-.024,2.4,2.4,0,0,1,0-.278V276.313c0-1.027.328-1.357,1.351-1.357h.251a2.15,2.15,0,0,0,.275-.012,1.257,1.257,0,0,0,.022-2.507,2.241,2.241,0,0,0-.259-.012H4972.4q-1.5,0-3-.007a1.031,1.031,0,0,1-1.033-.913,1.018,1.018,0,0,1,.782-1.1,2.031,2.031,0,0,1,.449-.031h4.811v-.5c0-.195.007-.388.013-.584a7.654,7.654,0,0,0-.039-1.427,1.883,1.883,0,0,0-1.915-1.539q-3.6-.006-7.205-.006-3.294,0-6.586.006a2.007,2.007,0,0,0-2,2.128V275.7c0,.962-.345,1.3-1.314,1.3h-7.157a2.033,2.033,0,0,0-2.217,2.206v22.522a2.056,2.056,0,0,0,2.242,2.234h24.113a1.671,1.671,0,0,1,.216.009,1.026,1.026,0,0,1-.02,2.042,1.352,1.352,0,0,1-.155.006h-13.274Zm-.488-31.1h6.938v-6.938Z" fill="#fff"/>
    <g id="Group_131" data-name="Group 131" transform="translate(4959.873 276.92)">
      <path id="Path_1606" data-name="Path 1606" d="M4962.66,281.911a1.749,1.749,0,0,0-1.875,1.588V296.17a1.9,1.9,0,0,0,3.751,0V283.5a1.749,1.749,0,0,0-1.876-1.589Z" transform="translate(-4960.784 -281.906)" fill="#fff"/>
      <path id="Path_1607" data-name="Path 1607" d="M4962.66,292.751a1.876,1.876,0,1,0,1.877,1.876,1.876,1.876,0,0,0-1.877-1.876Z" transform="translate(-4960.785 -274.95)" fill="#fff"/>
    </g>
  </g>
</svg>
