<svg id="Group_3664" data-name="Group 3664" xmlns="http://www.w3.org/2000/svg" width="45.889" height="53.766" viewBox="0 0 45.889 53.766">
  <path id="Path_1600" data-name="Path 1600" d="M4851.507,320.079a5.238,5.238,0,0,1-5.386-4.566,6.375,6.375,0,0,1-.051-1V304.131q0-10.381-.009-20.761a5.729,5.729,0,0,1,1.762-4.27q5.517-5.476,10.988-10.995a5.78,5.78,0,0,1,4.295-1.789c2.837.01,5.649.012,8.461.012h10.852a5.245,5.245,0,0,1,5.6,5.587v2.156l.436.15c2.32.8,3.5,2.226,3.5,4.241s-1.176,3.435-3.5,4.243l-.434.15,0,31.637c0,.147,0,.295-.008.44a1.319,1.319,0,0,1-2.632-.031c-.008-.119-.006-.238,0-.359V281.834c0-1.322.423-1.748,1.739-1.748l.324,0c.118,0,.236,0,.354-.014a1.619,1.619,0,0,0,.027-3.229,3.151,3.151,0,0,0-.331-.015l-4.784.005q-1.93,0-3.858-.009a1.328,1.328,0,0,1-1.328-1.176,1.311,1.311,0,0,1,1.007-1.418,2.54,2.54,0,0,1,.577-.04l6.191,0v-.645c0-.251.009-.5.018-.751a9.659,9.659,0,0,0-.053-1.835,2.424,2.424,0,0,0-2.464-1.982q-4.636-.006-9.274-.008-4.239,0-8.476.009a2.581,2.581,0,0,0-2.577,2.738c0,2,0,9.339,0,9.339,0,1.237-.442,1.677-1.69,1.677h-9.214a2.618,2.618,0,0,0-2.853,2.84v28.992a2.647,2.647,0,0,0,2.884,2.875l31.038,0c.092,0,.186,0,.278.01a1.321,1.321,0,0,1-.025,2.629,1.766,1.766,0,0,1-.2.008H4865.6Zm-.629-40.033h8.928v-8.931Z" transform="translate(-4846.061 -266.316)" fill="#fff"/>
  <path id="Path_1601" data-name="Path 1601" d="M4862.476,297.2a1.612,1.612,0,0,1-1.1-.566q-2.784-2.774-5.557-5.558a1.65,1.65,0,0,1-.544-1.143,1.349,1.349,0,0,1,1.277-1.266,1.624,1.624,0,0,1,1.113.528c1.027,1.025,2.049,2.052,3.119,3.128l1.817,1.829.447-.59.187-.255a2.183,2.183,0,0,1,.223-.286q3.854-3.868,7.722-7.729a1.691,1.691,0,0,1,1.151-.557,1.217,1.217,0,0,1,.877.394,1.347,1.347,0,0,1-.167,2.033q-4.728,4.736-9.463,9.465A1.633,1.633,0,0,1,4862.476,297.2Z" transform="translate(-4843.458 -261.116)" fill="#fff"/>
</svg>
