<svg xmlns="http://www.w3.org/2000/svg" width="45.899" height="53.779" viewBox="0 0 45.899 53.779">
  <g id="Group_3663" data-name="Group 3663" transform="translate(-4943.924 -264.26)">
    <path id="Path_1605" data-name="Path 1605" d="M4949.373,318.035a5.237,5.237,0,0,1-5.387-4.567,6.429,6.429,0,0,1-.051-1V302.083q0-10.382-.01-20.764a5.737,5.737,0,0,1,1.764-4.272q5.518-5.476,10.991-11a5.776,5.776,0,0,1,4.3-1.791c2.839.01,5.651.013,8.463.013l10.854,0a5.249,5.249,0,0,1,5.6,5.59v2.156l.435.15c2.319.8,3.5,2.227,3.5,4.24s-1.176,3.437-3.5,4.244l-.432.15,0,31.644c0,.147,0,.3-.007.44a1.32,1.32,0,0,1-2.635-.031c-.008-.118-.005-.239,0-.358V279.781c0-1.322.422-1.747,1.739-1.747l.323,0c.12,0,.237,0,.354-.015a1.619,1.619,0,0,0,.028-3.228,2.882,2.882,0,0,0-.333-.015l-4.786,0q-1.928,0-3.856-.009a1.328,1.328,0,0,1-1.329-1.176,1.311,1.311,0,0,1,1.007-1.419,2.61,2.61,0,0,1,.578-.04l6.193,0v-.644c0-.251.009-.5.017-.752a9.839,9.839,0,0,0-.051-1.837,2.425,2.425,0,0,0-2.465-1.982q-4.637-.008-9.276-.008-4.24,0-8.479.008a2.584,2.584,0,0,0-2.576,2.74c0,2,0,9.34,0,9.34,0,1.239-.444,1.678-1.692,1.678h-9.214a2.618,2.618,0,0,0-2.854,2.84v29a2.647,2.647,0,0,0,2.886,2.876l31.043,0c.094,0,.186,0,.279.012a1.321,1.321,0,0,1-.026,2.629,1.742,1.742,0,0,1-.2.008h-17.089Zm-.629-40.041h8.931V269.06Z" fill="#fff"/>
    <g id="Group_131" data-name="Group 131" transform="translate(4965.553 284.334)">
      <path id="Path_1606" data-name="Path 1606" d="M4962.662,281.911a1.749,1.749,0,0,0-1.875,1.588V296.17a1.9,1.9,0,0,0,3.751,0V283.5A1.749,1.749,0,0,0,4962.662,281.911Z" transform="translate(-4961.341 -281.793)" fill="#fff"/>
      <path id="Path_1607" data-name="Path 1607" d="M4962.663,292.751a1.876,1.876,0,1,0,1.877,1.876A1.876,1.876,0,0,0,4962.663,292.751Z" transform="translate(-4961.342 -274.837)" fill="#fff"/>
    </g>
  </g>
</svg>
