<svg id="DSC_Expiry_Date" data-name="DSC Expiry Date" xmlns="http://www.w3.org/2000/svg" xmlns:xlink="http://www.w3.org/1999/xlink" width="31.79" height="31.79" viewBox="0 0 31.79 31.79">
  <defs>
    <clipPath id="clip-path">
      <rect id="Rectangle_24935" data-name="Rectangle 24935" width="31.79" height="31.79" transform="translate(0 0)" fill="none"/>
    </clipPath>
  </defs>
  <g id="Group_70880" data-name="Group 70880" clip-path="url(#clip-path)">
    <path id="Path_74750" data-name="Path 74750" d="M25.37,13.26a1.125,1.125,0,1,1-1.13-1.12,1.127,1.127,0,0,1,1.13,1.12" fill="#fff"/>
    <path id="Path_74751" data-name="Path 74751" d="M31.79,7.32v7.19a1.01,1.01,0,0,1-2.02,0V7.32a2.785,2.785,0,0,0-2.78-2.77H25.1V6.06a1.01,1.01,0,0,1-2.02,0V4.55H16.84V6.06a1.01,1.01,0,1,1-2.02,0V4.55H8.64V6.06a1.01,1.01,0,0,1-2.02,0V4.55H4.79A2.776,2.776,0,0,0,2.02,7.32V27a2.783,2.783,0,0,0,2.77,2.77h9.65a1.01,1.01,0,1,1,0,2.02H4.79A4.8,4.8,0,0,1,0,27V7.32a4.812,4.812,0,0,1,4.79-4.8H6.62V1.01a1.01,1.01,0,0,1,2.02,0V2.52h6.18V1.01a1.01,1.01,0,0,1,2.02,0V2.52h6.23V1.01a1.015,1.015,0,0,1,2.03,0V2.52h1.89a4.821,4.821,0,0,1,4.8,4.8" fill="#fff"/>
    <path id="Path_74752" data-name="Path 74752" d="M24.41,17.03a7.38,7.38,0,1,0,7.38,7.38,7.388,7.388,0,0,0-7.38-7.38m0,12.74a5.36,5.36,0,1,1,5.36-5.36,5.36,5.36,0,0,1-5.36,5.36" fill="#fff"/>
    <path id="Path_74753" data-name="Path 74753" d="M27.25,24.41a1.016,1.016,0,0,1-1.02,1.01H24.41a1.016,1.016,0,0,1-1.02-1.01V21.83a1.015,1.015,0,1,1,2.03,0V23.4h.81a1.016,1.016,0,0,1,1.02,1.01" fill="#fff"/>
    <path id="Path_74754" data-name="Path 74754" d="M19.87,13.26a1.12,1.12,0,1,1-1.12-1.12,1.118,1.118,0,0,1,1.12,1.12" fill="#fff"/>
    <path id="Path_74755" data-name="Path 74755" d="M14.38,18.75a1.125,1.125,0,1,1-1.12-1.12,1.127,1.127,0,0,1,1.12,1.12" fill="#fff"/>
    <path id="Path_74756" data-name="Path 74756" d="M8.88,13.26a1.12,1.12,0,1,1-1.12-1.12,1.118,1.118,0,0,1,1.12,1.12" fill="#fff"/>
    <path id="Path_74757" data-name="Path 74757" d="M8.88,18.75a1.12,1.12,0,1,1-1.12-1.12,1.127,1.127,0,0,1,1.12,1.12" fill="#fff"/>
    <path id="Path_74758" data-name="Path 74758" d="M8.88,24.25a1.12,1.12,0,1,1-1.12-1.13,1.118,1.118,0,0,1,1.12,1.13" fill="#fff"/>
    <path id="Path_74759" data-name="Path 74759" d="M14.38,24.25a1.125,1.125,0,0,1-2.25,0,1.125,1.125,0,1,1,2.25,0" fill="#fff"/>
    <path id="Path_74760" data-name="Path 74760" d="M14.38,13.26a1.125,1.125,0,1,1-1.12-1.12,1.118,1.118,0,0,1,1.12,1.12" fill="#fff"/>
  </g>
</svg>
