<svg id="IC_issued_by_IE_but" data-name="IC issued by IE but" xmlns="http://www.w3.org/2000/svg" width="32.22" height="35.96" viewBox="0 0 32.22 35.96">
  <path id="Path_74761" data-name="Path 74761" d="M17.3,20.96l-.16.05-.02.16v.17a1.208,1.208,0,0,1-1.16,1.16H15.9a1.164,1.164,0,0,1-1.09-1.17c.01-.2.02-.39.05-.61a2.075,2.075,0,0,1,1.67-1.94,2.2,2.2,0,0,0,.31-4.14,2.194,2.194,0,0,0-2.89,1.14,1.154,1.154,0,0,1-1.52.59,1.146,1.146,0,0,1-.59-1.52,4.5,4.5,0,0,1,8.42.47,4.51,4.51,0,0,1-2.96,5.64" fill="#fff" fill-rule="evenodd"/>
  <path id="Path_74762" data-name="Path 74762" d="M17.11,24.99a1.15,1.15,0,1,1-1.15-1.15,1.15,1.15,0,0,1,1.15,1.15" fill="#fff"/>
  <path id="Path_74763" data-name="Path 74763" d="M30.79,8.59,23.63,1.43A4.88,4.88,0,0,0,20.17,0H8.63A8.638,8.638,0,0,0,0,8.63v18.7a8.638,8.638,0,0,0,8.63,8.63H23.59a8.638,8.638,0,0,0,8.63-8.63V12.05a4.863,4.863,0,0,0-1.43-3.46M22.87,3.93l5.41,5.42H25.46a2.591,2.591,0,0,1-2.59-2.59Zm7.04,23.39a6.329,6.329,0,0,1-6.32,6.33H8.63A6.342,6.342,0,0,1,2.3,27.33V8.63A6.336,6.336,0,0,1,8.63,2.31H20.56l.01,4.45a4.9,4.9,0,0,0,4.89,4.89h4.45Z" fill="#fff" fill-rule="evenodd"/>
</svg>
