<svg id="Issued_IC" data-name="Issued IC" xmlns="http://www.w3.org/2000/svg" width="44.957" height="43.542" viewBox="0 0 44.957 43.542">
  <path id="Path_74806" data-name="Path 74806" d="M23.458,9.565a.983.983,0,0,0-.286-.679l-8.6-8.6A.987.987,0,0,0,13.88,0H.981A.982.982,0,0,0,0,.981v28.66a.982.982,0,0,0,.981.981h21.5a.981.981,0,0,0,.98-.981c.006,0,0-20.072,0-20.077M20.109,8.6H14.86V3.35ZM1.959,28.664V1.963H12.895V9.577a.982.982,0,0,0,.981.981H21.5v18.1H1.963Z" fill="#fff"/>
  <path id="Path_74807" data-name="Path 74807" d="M8.7,11.391H7.266a.981.981,0,0,1,0-1.963H8.7a.981.981,0,0,1,0,1.963" transform="translate(-0.552 -0.829)" fill="#fff"/>
  <path id="Path_74808" data-name="Path 74808" d="M17.3,17.676H7.266a.981.981,0,0,1,0-1.963H17.3a.981.981,0,0,1,0,1.963" transform="translate(-0.552 -1.382)" fill="#fff"/>
  <path id="Path_74809" data-name="Path 74809" d="M17.3,23.961H7.266a.981.981,0,0,1,0-1.963H17.3a.981.981,0,0,1,0,1.963" transform="translate(-0.552 -1.934)" fill="#fff"/>
  <path id="Path_74810" data-name="Path 74810" d="M41.339,35.984a5.278,5.278,0,1,0-7.448-.5,5.114,5.114,0,0,0,.5.5,9.6,9.6,0,0,0-6.1,8.927.982.982,0,0,0,.981.981h17.2a.982.982,0,0,0,.981-.981,9.6,9.6,0,0,0-6.105-8.927m-6.793-3.971a3.318,3.318,0,1,1,3.318,3.318,3.318,3.318,0,0,1-3.318-3.318ZM30.31,43.93a7.624,7.624,0,0,1,15.109,0Z" transform="translate(-2.487 -2.351)" fill="#fff"/>
  <path id="Path_74811" data-name="Path 74811" d="M41.562,16.485a.981.981,0,0,0-1.387,0l-1.191,1.191V12.86a8.156,8.156,0,0,0-8.146-8.146.981.981,0,0,0,0,1.963,6.191,6.191,0,0,1,6.184,6.184v4.816L35.83,16.485a.981.981,0,0,0-1.387,1.387l2.867,2.867a.989.989,0,0,0,1.387,0l2.867-2.867a.982.982,0,0,0,0-1.387" transform="translate(-2.625 -0.414)" fill="#fff"/>
</svg>
