<svg id="Issued_IC" data-name="Issued IC" xmlns="http://www.w3.org/2000/svg" width="44.507" height="40.508" viewBox="0 0 44.507 40.508">
  <g id="Group_70897" data-name="Group 70897">
    <path id="Path_74782" data-name="Path 74782" d="M42.114,15.128H39.906a2.4,2.4,0,0,0-2.2,1.472h-.427a9.082,9.082,0,0,1-3.665-.952l-4.559-1.755V2.391A2.394,2.394,0,0,0,26.666,0H8.269a.988.988,0,0,0-.638.266L.274,7.623l-.053.058v.007A1,1,0,0,0,0,8.276v29.84a2.394,2.394,0,0,0,2.391,2.391H26.666a2.394,2.394,0,0,0,2.392-2.391V36.686a9.793,9.793,0,0,0,3.957-1.594,2.666,2.666,0,0,1,1.537-.468h3.157a2.4,2.4,0,0,0,2.2,1.47h2.207A2.394,2.394,0,0,0,44.507,33.7V17.52a2.394,2.394,0,0,0-2.392-2.392M39.357,17.52a.551.551,0,0,1,.551-.552h2.207a.552.552,0,0,1,.551.552V33.7a.552.552,0,0,1-.551.551H39.908a.551.551,0,0,1-.551-.551ZM28.138,27.634a.922.922,0,0,0-.921.921v9.563a.552.552,0,0,1-.551.551H2.391a.551.551,0,0,1-.551-.551V9.2H6.8A2.394,2.394,0,0,0,9.2,6.806V1.841H26.666a.552.552,0,0,1,.551.55V13.183l-2.461-.945a3.487,3.487,0,0,0-4.432,2.052l-2.85,7.5A3.5,3.5,0,1,0,24,24.287l1.439-3.775,1.64.822a6.64,6.64,0,0,0,1.111,4.448,5.971,5.971,0,0,0,4.241,2.213.761.761,0,0,0,.118.009.92.92,0,0,0,.1-1.834,4.214,4.214,0,0,1-2.981-1.484,5.107,5.107,0,0,1-.689-3.75,1.007,1.007,0,0,0-.5-.957l-3.135-1.571a.952.952,0,0,0-1.263.5l-1.8,4.727a1.646,1.646,0,0,1-.871.921,1.655,1.655,0,0,1-2.219-2.1l2.856-7.508a1.683,1.683,0,0,1,2.074-.973l8.787,3.378a10.815,10.815,0,0,0,4.365,1.1h.242V32.783H34.529a4.491,4.491,0,0,0-2.56.8,7.933,7.933,0,0,1-2.91,1.234V28.554a.922.922,0,0,0-.921-.921M7.356,6.806a.551.551,0,0,1-.551.55H3.14L7.356,3.141Z" fill="#fff"/>
    <path id="Path_74783" data-name="Path 74783" d="M4.517,11.169h11.77a.921.921,0,0,0,0-1.841H4.517a.921.921,0,1,0,0,1.841" transform="translate(0.818 2.121)" fill="#fff"/>
    <path id="Path_74784" data-name="Path 74784" d="M4.517,14.165H8.93a.92.92,0,1,0,0-1.84H4.517a.92.92,0,1,0,0,1.84" transform="translate(0.818 2.803)" fill="#fff"/>
    <path id="Path_74785" data-name="Path 74785" d="M10.51,12.325a.92.92,0,1,0,0,1.84h4.8a.92.92,0,1,0,0-1.84Z" transform="translate(2.181 2.803)" fill="#fff"/>
    <path id="Path_74786" data-name="Path 74786" d="M4.517,17.162H15.271a.921.921,0,1,0,0-1.841H4.517a.921.921,0,1,0,0,1.841" transform="translate(0.818 3.484)" fill="#fff"/>
    <path id="Path_74787" data-name="Path 74787" d="M4.517,20.158H8.93a.92.92,0,1,0,0-1.84H4.517a.92.92,0,1,0,0,1.84" transform="translate(0.818 4.165)" fill="#fff"/>
    <path id="Path_74788" data-name="Path 74788" d="M13.054,18.318H10.51a.92.92,0,1,0,0,1.84h2.544a.92.92,0,1,0,0-1.84" transform="translate(2.181 4.165)" fill="#fff"/>
    <path id="Path_74789" data-name="Path 74789" d="M4.517,23.155H16.168a.92.92,0,1,0,0-1.84H4.517a.92.92,0,1,0,0,1.84" transform="translate(0.818 4.847)" fill="#fff"/>
    <path id="Path_74790" data-name="Path 74790" d="M4.517,26.152H8.93a.921.921,0,1,0,0-1.841H4.517a.921.921,0,1,0,0,1.841" transform="translate(0.818 5.528)" fill="#fff"/>
    <path id="Path_74791" data-name="Path 74791" d="M22.279,24.311H10.51a.921.921,0,1,0,0,1.841h11.77a.921.921,0,0,0,0-1.841" transform="translate(2.181 5.528)" fill="#fff"/>
    <path id="Path_74792" data-name="Path 74792" d="M20.916,27.309H16.5a.92.92,0,1,0,0,1.84h4.414a.92.92,0,1,0,0-1.84" transform="translate(3.543 6.21)" fill="#fff"/>
    <path id="Path_74793" data-name="Path 74793" d="M16.286,27.309H4.517a.92.92,0,1,0,0,1.84h11.77a.92.92,0,1,0,0-1.84" transform="translate(0.818 6.21)" fill="#fff"/>
  </g>
</svg>
