<svg id="No_of_Manually_marked_calls" data-name="No of Manually marked calls" xmlns="http://www.w3.org/2000/svg" width="45.234" height="52.999" viewBox="0 0 45.234 52.999">
  <path id="Path_1600" data-name="Path 1600" d="M4851.43,319.313a5.164,5.164,0,0,1-5.31-4.5,6.328,6.328,0,0,1-.05-.983V303.592q0-10.233-.009-20.465a5.645,5.645,0,0,1,1.736-4.209q5.439-5.4,10.832-10.838a5.7,5.7,0,0,1,4.234-1.763c2.8.01,5.569.011,8.341.011h10.7a5.17,5.17,0,0,1,5.519,5.508v2.125l.43.148c2.286.788,3.445,2.194,3.445,4.18s-1.159,3.386-3.447,4.183l-.428.148,0,31.186c0,.145,0,.291-.008.434a1.3,1.3,0,0,1-2.6-.03c-.007-.118-.006-.235,0-.354v-32.24c0-1.3.417-1.723,1.715-1.723l.319,0c.115,0,.232,0,.349-.014a1.6,1.6,0,0,0,.026-3.183,3.1,3.1,0,0,0-.326-.015l-4.715.005q-1.9,0-3.8-.009a1.309,1.309,0,0,1-1.309-1.159,1.292,1.292,0,0,1,.994-1.4,2.5,2.5,0,0,1,.569-.039l6.1,0v-.636c0-.248.009-.494.018-.741a9.545,9.545,0,0,0-.052-1.809,2.389,2.389,0,0,0-2.429-1.954q-4.57-.006-9.142-.008-4.178,0-8.355.009a2.543,2.543,0,0,0-2.54,2.7c0,1.975,0,9.206,0,9.206,0,1.22-.437,1.653-1.667,1.653h-9.082a2.581,2.581,0,0,0-2.812,2.8v28.579a2.609,2.609,0,0,0,2.842,2.834l30.6,0c.09,0,.183,0,.273.01a1.3,1.3,0,0,1-.024,2.591,1.74,1.74,0,0,1-.2.008H4865.32Zm-.62-39.463h8.8v-8.8Z" transform="translate(-4846.061 -266.316)" fill="#fff"/>
  <path id="Path_1601" data-name="Path 1601" d="M4862.373,297.02a1.587,1.587,0,0,1-1.08-.557q-2.746-2.734-5.479-5.478a1.627,1.627,0,0,1-.535-1.126,1.216,1.216,0,0,1,.4-.868,1.23,1.23,0,0,1,.864-.379,1.6,1.6,0,0,1,1.1.521c1.012,1.01,2.021,2.022,3.074,3.083l1.792,1.8.44-.581.184-.252a2.19,2.19,0,0,1,.22-.282q3.8-3.813,7.612-7.618a1.667,1.667,0,0,1,1.135-.549,1.2,1.2,0,0,1,.865.388,1.328,1.328,0,0,1-.166,2q-4.66,4.668-9.328,9.33A1.61,1.61,0,0,1,4862.373,297.02Z" transform="translate(-4843.628 -261.452)" fill="#fff"/>
</svg>
