<svg id="No_of_Total_Calls" data-name="No of Total Calls" xmlns="http://www.w3.org/2000/svg" width="45.254" height="53" viewBox="0 0 45.254 53">
  <g id="Group_124" data-name="Group 124" transform="translate(0 0)">
    <path id="Path_1597" data-name="Path 1597" d="M4930.765,271.9l-.429-.145v-2.067a5.176,5.176,0,0,0-5.582-5.571l-10.488.005c-2.8,0-5.6,0-8.439-.016a5.743,5.743,0,0,0-4.333,1.805c-3.783,3.825-7.288,7.327-10.711,10.707a5.827,5.827,0,0,0-1.826,4.419q.028,10.973.013,21.946V311.5a5.2,5.2,0,0,0,5.6,5.608l30.432,0c.074,0,.15,0,.226-.006a1.318,1.318,0,0,0,1.228-1.206,1.3,1.3,0,0,0-1.038-1.364,2.423,2.423,0,0,0-.485-.03h-30.513a2.609,2.609,0,0,1-2.846-2.832q0-14.29,0-28.579a2.581,2.581,0,0,1,2.812-2.8h9.084c1.233,0,1.669-.432,1.669-1.651,0,0,0-7.285,0-9.2a2.546,2.546,0,0,1,2.539-2.7q4.374-.009,8.752-.009t8.751.008a2.393,2.393,0,0,1,2.433,1.952,9.639,9.639,0,0,1,.05,1.811c-.008.245-.017.494-.017.742v.636h-6.1a2.643,2.643,0,0,0-.573.039,1.292,1.292,0,0,0-.994,1.4,1.306,1.306,0,0,0,1.308,1.161q1.844.011,3.688.009l4.833-.005a3.128,3.128,0,0,1,.327.015,1.6,1.6,0,0,1-.021,3.182c-.115.011-.229.016-.346.016l-.324,0c-1.3,0-1.717.42-1.717,1.721l0,32.239c0,.118,0,.236,0,.354a1.3,1.3,0,0,0,2.6.033c.011-.144.009-.288.007-.434V280.409l.424-.148c2.288-.8,3.449-2.21,3.449-4.182C4934.211,274.085,4933.052,272.679,4930.765,271.9Zm-28.256,5.746h-8.847l8.847-8.849Z" transform="translate(-4888.956 -264.106)" fill="#fff"/>
    <rect id="Rectangle_327" data-name="Rectangle 327" width="19.612" height="2.577" rx="0.908" transform="translate(10.888 24.198)" fill="#fff"/>
    <rect id="Rectangle_328" data-name="Rectangle 328" width="19.612" height="2.577" rx="0.908" transform="translate(10.888 32.001)" fill="#fff"/>
    <rect id="Rectangle_329" data-name="Rectangle 329" width="19.612" height="2.577" rx="0.908" transform="translate(10.888 39.803)" fill="#fff"/>
  </g>
</svg>
