<svg id="No._of_consignee_complaints_closed_at_rites" data-name="No. of consignee complaints closed at rites" xmlns="http://www.w3.org/2000/svg" width="44.907" height="44.908" viewBox="0 0 44.907 44.908">
  <path id="Path_74815" data-name="Path 74815" d="M26.005,42.643H2.265V7.768H6.635A1.136,1.136,0,0,0,7.768,6.636V2.265H33.013V14.887a1.133,1.133,0,1,0,2.265,0V1.132A1.135,1.135,0,0,0,34.146,0H6.635a1.133,1.133,0,0,0-.8.331l-5.5,5.5a1.135,1.135,0,0,0-.332.8v37.14a1.136,1.136,0,0,0,1.133,1.133H26.005a1.133,1.133,0,0,0,0-2.265M3.866,5.5,4.7,4.667l.8-.8V5.5Z" fill="#fff"/>
  <path id="Path_74816" data-name="Path 74816" d="M40.138,14.359a5.512,5.512,0,0,0-8.258,4.433,14.183,14.183,0,0,1-1.636,5.676,9.12,9.12,0,0,1-3.43,3.2,15.5,15.5,0,0,0-1.5-.433c-2.2-.513-3.7-.214-4.321.872L18.407,32.6c-.627,1.085-.14,2.53,1.405,4.179a22.942,22.942,0,0,0,5.113,3.884,22.85,22.85,0,0,0,5.92,2.485,8.383,8.383,0,0,0,1.884.246,2.655,2.655,0,0,0,2.349-.979l2.681-4.627c.435-.755.545-2.094-1.405-4.179-.311-.333-.674-.681-1.082-1.039a9.149,9.149,0,0,1,1.061-4.587,14.047,14.047,0,0,1,4.122-4.271,5.512,5.512,0,0,0-.316-9.352M33.086,30.883c-.583-.4-1.2-.788-1.844-1.16-.627-.361-1.258-.7-1.884-1a10.585,10.585,0,0,0,2.85-3.128,16.269,16.269,0,0,0,1.935-6.692,3.182,3.182,0,0,1,.428-1.4,3.248,3.248,0,1,1,4.638,4.312,16.1,16.1,0,0,0-4.838,5.028,10.585,10.585,0,0,0-1.284,4.035m-.977,8.762A4.5,4.5,0,0,1,33.13,41.1a4.487,4.487,0,0,1-1.771-.157,20.491,20.491,0,0,1-5.3-2.242,20.478,20.478,0,0,1-4.593-3.471,4.446,4.446,0,0,1-1.022-1.455,5.218,5.218,0,0,1,1.771.158,20.546,20.546,0,0,1,5.3,2.242,20.568,20.568,0,0,1,4.593,3.472M21.637,31.532l1.279-2.214a3.677,3.677,0,0,1,1.89.126,20.521,20.521,0,0,1,5.3,2.242A20.529,20.529,0,0,1,34.7,35.156a3.685,3.685,0,0,1,1.053,1.573l-1.279,2.215a10.13,10.13,0,0,0-.714-.848,22.85,22.85,0,0,0-5.112-3.885,22.873,22.873,0,0,0-5.921-2.485,9.956,9.956,0,0,0-1.091-.194" transform="translate(2.013 1.511)" fill="#fff"/>
  <path id="Path_74817" data-name="Path 74817" d="M30.853,22.435A1.135,1.135,0,0,0,29.72,21.3H5.019a1.133,1.133,0,0,0,0,2.266h24.7a1.135,1.135,0,0,0,1.133-1.133" transform="translate(0.431 2.364)" fill="#fff"/>
  <path id="Path_74818" data-name="Path 74818" d="M20.664,26.519a1.135,1.135,0,0,0-1.133-1.133H5.019a1.133,1.133,0,1,0,0,2.266H19.53a1.135,1.135,0,0,0,1.133-1.133" transform="translate(0.431 2.816)" fill="#fff"/>
  <path id="Path_74819" data-name="Path 74819" d="M5.019,31.737H17.37a1.133,1.133,0,1,0,0-2.265H5.019a1.133,1.133,0,1,0,0,2.265" transform="translate(0.431 3.271)" fill="#fff"/>
  <path id="Path_74820" data-name="Path 74820" d="M5.019,35.96H18.7a1.132,1.132,0,1,0,0-2.264H5.019a1.132,1.132,0,1,0,0,2.264" transform="translate(0.431 3.738)" fill="#fff"/>
  <path id="Path_74821" data-name="Path 74821" d="M24.756,12.9a7.939,7.939,0,1,0-7.94,7.939,7.949,7.949,0,0,0,7.94-7.939m-13.614,0a5.674,5.674,0,1,1,5.674,5.674A5.68,5.68,0,0,1,11.142,12.9" transform="translate(0.985 0.551)" fill="#fff"/>
  <path id="Path_74822" data-name="Path 74822" d="M19.665,10.1h0a.952.952,0,0,0-1.341.1l-2.709,3.141-1.108-.782a.952.952,0,1,0-1.1,1.555l1.813,1.278a.944.944,0,0,0,.549.176.954.954,0,0,0,.72-.331l3.272-3.794a.954.954,0,0,0-.1-1.342" transform="translate(1.443 1.095)" fill="#fff"/>
</svg>
