<svg xmlns="http://www.w3.org/2000/svg" xmlns:xlink="http://www.w3.org/1999/xlink" width="45.576" height="45.598" viewBox="0 0 45.576 45.598">
  <defs>
    <clipPath id="clip-path">
      <rect id="Rectangle_24939" data-name="Rectangle 24939" width="45.576" height="45.598" fill="none"/>
    </clipPath>
  </defs>
  <g id="No._of_calls_per_IE" data-name="No. of calls per IE" transform="translate(0 0.001)">
    <g id="Group_70903" data-name="Group 70903" transform="translate(0 0)" clip-path="url(#clip-path)">
      <path id="Path_74801" data-name="Path 74801" d="M38.716,35.484a20.059,20.059,0,0,0,6.86-15.2A20.341,20.341,0,0,0,25.3,0H25.21A20.025,20.025,0,0,0,10.1,6.864L7.241,4.009a1.271,1.271,0,0,0-1.719-.072A15.733,15.733,0,0,0,.051,12.183a7.589,7.589,0,0,0,.261,3.035C1.231,20.373,4,24.536,6.836,28.256a38.508,38.508,0,0,0,4.82,5.6,38.691,38.691,0,0,0,5.652,4.877c3.728,2.85,7.88,5.612,12.945,6.51a10.429,10.429,0,0,0,2.379.36h.056a3.4,3.4,0,0,0,.756-.086,15.715,15.715,0,0,0,8.18-5.448,1.277,1.277,0,0,0-.06-1.732ZM33.14,29.908a1.292,1.292,0,0,0-.89-.352,1.307,1.307,0,0,0-.9.359l-1.261,1.262c-2.343,2.351-3.15,2.5-6.171,1.132l-.174-.074a17.246,17.246,0,0,1-6-4.3,1.255,1.255,0,0,0-.094-.1,17.259,17.259,0,0,1-4.3-6l-.075-.17c-1.368-3.024-1.221-3.831,1.131-6.175l1.258-1.26a1.268,1.268,0,0,0,0-1.8L11.9,8.67A17.5,17.5,0,0,1,25.23,2.543H25.3A17.8,17.8,0,0,1,43.034,20.282a17.521,17.521,0,0,1-6.12,13.4ZM12.612,13.691c-3.086,3.075-3.454,5.01-1.679,8.955l.076.181a19.762,19.762,0,0,0,4.877,6.836,19.824,19.824,0,0,0,6.86,4.9l.112.048c3.99,1.806,5.93,1.454,9.022-1.648l.361-.36,6.673,6.673a12.772,12.772,0,0,1-6.085,3.764,6.348,6.348,0,0,1-2.024-.28c-4.625-.826-8.478-3.4-11.963-6.059a36.731,36.731,0,0,1-5.385-4.644,36.491,36.491,0,0,1-4.59-5.336c-2.654-3.476-5.227-7.34-6.075-12.061a6.5,6.5,0,0,1-.266-1.9A12.8,12.8,0,0,1,6.3,6.658l6.674,6.673Z" transform="translate(0 0.001)" fill="#fff"/>
      <path id="Path_74802" data-name="Path 74802" d="M27.015,14.081A5.421,5.421,0,0,0,23.6,4.891a5.309,5.309,0,0,0-3.954,1.258,5.419,5.419,0,0,0-.649,7.64c.086.1.177.2.27.3a8.785,8.785,0,0,0-4.91,7.885,1.272,1.272,0,0,0,1.269,1.272h0a1.271,1.271,0,0,0,1.27-1.272,6.253,6.253,0,0,1,6.242-6.249h0a6.248,6.248,0,0,1,6.245,6.249,1.271,1.271,0,1,0,2.542,0,8.784,8.784,0,0,0-4.914-7.889m-1-3.774a2.878,2.878,0,1,1-2.877-2.878,2.88,2.88,0,0,1,2.877,2.878" transform="translate(4.86 1.649)" fill="#fff"/>
    </g>
  </g>
</svg>
