<svg id="No_of_Online_Calls_Marked" data-name="No of Online Calls Marked" xmlns="http://www.w3.org/2000/svg" width="43.734" height="53" viewBox="0 0 43.734 53">
  <g id="Group_70927" data-name="Group 70927" transform="translate(0 0)">
    <path id="Path_74928" data-name="Path 74928" d="M40.4,7.543,39.98,7.4V5.335a3.1,3.1,0,0,0,0-.675A5,5,0,0,0,34.644.011h-18.4a5.493,5.493,0,0,0-4.1,1.705Q6.938,6.96,1.682,12.192A5.409,5.409,0,0,0,0,16.253V45.939A8.332,8.332,0,0,0,.05,46.9a5,5,0,0,0,5.14,4.343l13.432.012H30.878a6.822,6.822,0,0,1-.294-2.012c0-.172.012-.343.025-.515H5.276a1.485,1.485,0,0,1-.466,0,2.518,2.518,0,0,1-2.282-2.736V18.35a2.8,2.8,0,0,1,0-.454,2.511,2.511,0,0,1,2.723-2.257h8.771c1.19,0,1.619-.417,1.619-1.595V5.151a.7.7,0,0,1-.012-.159A2.463,2.463,0,0,1,18.1,2.538c2.686,0,5.385-.012,8.072-.012,2.944.012,5.9.012,8.845.012a2.3,2.3,0,0,1,2.343,1.889A9.293,9.293,0,0,1,37.4,6.181c-.012.233-.012.466-.012.711v.613h-5.9a2.093,2.093,0,0,0-.552.037,1.247,1.247,0,0,0-.957,1.349,1.264,1.264,0,0,0,1.264,1.129h8.231c.11,0,.221.012.319.012a1.544,1.544,0,0,1-.025,3.079,2.989,2.989,0,0,1-.331.012h-.319c-1.251,0-1.656.4-1.656,1.668V42.247h.11a6.539,6.539,0,0,1,2.4.442V15.774l.417-.147c2.208-.773,3.337-2.122,3.337-4.048S42.6,8.3,40.4,7.543M13.1,13.088H4.589L13.1,4.574Z" transform="translate(0 0)" fill="#fff"/>
    <path id="Path_74929" data-name="Path 74929" d="M16.039,30.232a1.53,1.53,0,0,1-1.045-.539q-2.653-2.644-5.3-5.3a1.573,1.573,0,0,1-.518-1.089A1.289,1.289,0,0,1,10.4,22.1a1.554,1.554,0,0,1,1.062.5c.98.981,1.952,1.955,2.97,2.981l1.733,1.743.426-.562.178-.245a1.979,1.979,0,0,1,.212-.272q3.671-3.686,7.36-7.36a1.606,1.606,0,0,1,1.1-.53,1.164,1.164,0,0,1,.837.375,1.284,1.284,0,0,1-.015,1.814,1.368,1.368,0,0,1-.145.123q-4.5,4.514-9.019,9.02a1.551,1.551,0,0,1-1.057.542" transform="translate(2.082 4.162)" fill="#fff"/>
    <path id="Path_74930" data-name="Path 74930" d="M35.088,40.834a3.761,3.761,0,1,1-3.761-3.761,3.762,3.762,0,0,1,3.761,3.761" transform="translate(6.25 8.405)" fill="#fff"/>
  </g>
</svg>
