<svg id="No._of_POs_Awaiting_for_case_no." data-name="No. of POs, Awaiting for case no." xmlns="http://www.w3.org/2000/svg" width="38.991" height="49.639" viewBox="0 0 38.991 49.639">
  <path id="Path_74838" data-name="Path 74838" d="M37.739,0H7.332a1.256,1.256,0,0,0-.884.368L.368,6.447A1.206,1.206,0,0,0,0,7.332V48.386a1.258,1.258,0,0,0,1.253,1.253H37.739a1.258,1.258,0,0,0,1.253-1.253V1.253A1.258,1.258,0,0,0,37.739,0M6.079,4.274V6.079H4.274Zm30.407,42.86H2.505V8.584H7.332A1.258,1.258,0,0,0,8.584,7.332V2.505h27.9Z" transform="translate(0)" fill="#fff"/>
  <path id="Path_74839" data-name="Path 74839" d="M33.693,22.553A1.255,1.255,0,0,0,32.44,21.3H5.135a1.253,1.253,0,0,0,0,2.505h27.3a1.255,1.255,0,0,0,1.253-1.253" transform="translate(0.886 4.858)" fill="#fff"/>
  <path id="Path_74840" data-name="Path 74840" d="M33.693,26.637a1.255,1.255,0,0,0-1.253-1.253H5.135a1.253,1.253,0,0,0,0,2.505h27.3a1.255,1.255,0,0,0,1.253-1.253" transform="translate(0.886 5.789)" fill="#fff"/>
  <path id="Path_74841" data-name="Path 74841" d="M5.136,31.974h27.3a1.252,1.252,0,1,0,0-2.5H5.136a1.252,1.252,0,1,0,0,2.5" transform="translate(0.886 6.721)" fill="#fff"/>
  <path id="Path_74842" data-name="Path 74842" d="M5.136,36.2h27.3a1.251,1.251,0,1,0,0-2.5H5.136a1.251,1.251,0,1,0,0,2.5" transform="translate(0.886 7.685)" fill="#fff"/>
  <path id="Path_74843" data-name="Path 74843" d="M17.53,8.813h-.064a.989.989,0,0,0-.932,1.06v3.37a.039.039,0,0,1-.011.022c-.4.4-.795.8-1.2,1.2l-.456.465a.987.987,0,0,0-.286.986.965.965,0,0,0,.943.742,1.043,1.043,0,0,0,.752-.329c.594-.582.519-.518,1.113-1.113l.8-.8a1.049,1.049,0,0,0,.328-.806V9.82a.988.988,0,0,0-.985-1.007m8.022,5.6a1.091,1.091,0,0,0-.318-.043.917.917,0,0,0-.868.54,5.628,5.628,0,0,0-.212.7c-.021.074-.042.138-.053.19l-.021.053v.043a1.024,1.024,0,0,0,.784,1.081,1.556,1.556,0,0,0,.212.021.938.938,0,0,0,.911-.625,5.02,5.02,0,0,0,.233-.89.974.974,0,0,0-.668-1.07m-.657,3.942a1.012,1.012,0,0,0-1.028-.975.964.964,0,0,0-.71.318,6.644,6.644,0,0,0-.488.593.992.992,0,0,0,.784,1.6,1.019,1.019,0,0,0,.785-.382l.064-.074a4.81,4.81,0,0,0,.35-.446,3.488,3.488,0,0,0,.169-.339.573.573,0,0,1,.053-.117l.032-.085Zm-2.6,1.811a.988.988,0,0,0-1.3-.508,6.329,6.329,0,0,0-.711.36.965.965,0,0,0-.445,1.1,1,1,0,0,0,.932.753h.043l.053-.011.064-.011a.767.767,0,0,0,.254-.074l.021-.011a6.286,6.286,0,0,0,.7-.36.982.982,0,0,0,.392-1.24M26.326,6.905a.465.465,0,0,0-.053-.1,1.039,1.039,0,0,0-.212-.318.917.917,0,0,0-.657-.286,1.062,1.062,0,0,0-.4.085.979.979,0,0,0-.6.922v.849a8.494,8.494,0,0,0-5.225-3.116,10.93,10.93,0,0,0-1.781-.169,8.6,8.6,0,0,0-6.559,3.073,8.37,8.37,0,0,0-2.12,4.928A8.737,8.737,0,0,0,11,19.675,8.562,8.562,0,0,0,15.866,22.4c.211.043.435.064.646.1.107.01.2.021.308.032a.3.3,0,0,1,.095.021l.085.01h.975l.117-.01c.064-.011.138-.011.2-.021a.991.991,0,0,0,.128-1.961,1.888,1.888,0,0,0-.244-.021h-.2c-.158-.011-.318-.011-.476-.011a5.836,5.836,0,0,1-.975-.053,6.7,6.7,0,0,1-4.706-2.988,6.886,6.886,0,0,1,1.728-9.432,6.667,6.667,0,0,1,3.9-1.293,7.818,7.818,0,0,1,1.484.158,6.764,6.764,0,0,1,3.963,2.449c.064.085.138.179.212.286H21.853a1,1,0,0,0,0,1.992h.2c.329.011.657.011.986.011.371,0,.7-.011,1-.022a2.289,2.289,0,0,0,1.971-1.176,3.36,3.36,0,0,0,.254-.635c.032-.1.064-.181.1-.265l.021-.053V6.99Z" transform="translate(1.975 1.09)" fill="#fff"/>
</svg>
