<svg xmlns="http://www.w3.org/2000/svg" width="42.396" height="35.579" viewBox="0 0 42.396 35.579">
  <g id="No._of_IEs_per_CMs" data-name="No. of IEs per CMs" transform="translate(-10.254 -91.85)">
    <g id="Group_70894" data-name="Group 70894" transform="translate(10.654 92.25)">
      <path id="Path_74781" data-name="Path 74781" d="M44.847,107.553a6.253,6.253,0,1,0-7.175,0,10.835,10.835,0,0,0-3.7,2.168,14.02,14.02,0,0,0-5.072-2.764,7.922,7.922,0,1,0-8.193,0,14.171,14.171,0,0,0-5.018,2.731c-3.887,2.948-4.578,7.264-4.92,9.006a14.576,14.576,0,0,0-.119,1.832v.737a5.763,5.763,0,0,0,5.766,5.766h16.8a5.763,5.763,0,0,0,5.766-5.766v-.737a14.576,14.576,0,0,0-.119-1.832H52.206a.047.047,0,0,0,.043-.043v-.715A11.019,11.019,0,0,0,44.847,107.553Zm-8.107-5.126a4.519,4.519,0,1,1,4.606,4.519h-.173A4.513,4.513,0,0,1,36.741,102.427ZM18.6,100.172a6.188,6.188,0,1,1,6.546,6.178h-.715A6.2,6.2,0,0,1,18.6,100.172Zm18.63,21.09a4.038,4.038,0,0,1-4.032,4.032H16.4a4.038,4.038,0,0,1-4.032-4.032v-.737a12.449,12.449,0,0,1,12.062-12.431c.119.011.249.011.368.011s.249,0,.368-.011a12.449,12.449,0,0,1,12.062,12.431Zm1.29-4.313a14.193,14.193,0,0,0-3.284-6.026,9.208,9.208,0,0,1,5.961-2.243h.13a9.26,9.26,0,0,1,9.125,8.269Z" transform="translate(-10.654 -92.25)" fill="#fff" stroke="#fff" stroke-width="0.8"/>
    </g>
  </g>
</svg>
