<svg id="No._of_major_Charge_Sheets" data-name="No. of major Charge Sheets" xmlns="http://www.w3.org/2000/svg" width="43.078" height="47.793" viewBox="0 0 43.078 47.793">
  <path id="Path_74813" data-name="Path 74813" d="M35.474,38.793v2.954a2.538,2.538,0,0,1-2.514,2.514H4.928a2.546,2.546,0,0,1-2.514-2.514V9.278A2.538,2.538,0,0,1,4.928,6.764H7.605V4.35H4.928A4.96,4.96,0,0,0,0,9.278V41.747a4.968,4.968,0,0,0,4.928,4.928H32.96a4.952,4.952,0,0,0,4.928-4.928V38.793Z" transform="translate(0 1.118)" fill="#fff"/>
  <g id="Group_70904" data-name="Group 70904" transform="translate(5.192 0)">
    <path id="Path_74812" data-name="Path 74812" d="M41.665,11.778,30.239.352A1.168,1.168,0,0,0,29.4,0H9.058A4.952,4.952,0,0,0,4.13,4.928V37.4a4.96,4.96,0,0,0,4.928,4.928H37.09A4.952,4.952,0,0,0,42.017,37.4V12.633a1.219,1.219,0,0,0-.352-.855m-3.759-.352H33.117A2.505,2.505,0,0,1,30.6,8.912l-.013-4.8ZM39.6,37.4a2.538,2.538,0,0,1-2.514,2.514H9.058A2.538,2.538,0,0,1,6.544,37.4V4.928A2.538,2.538,0,0,1,9.058,2.414H28.19v6.5a4.949,4.949,0,0,0,4.928,4.915h6.5Z" transform="translate(-4.13 0)" fill="#fff"/>
    <path id="Path_74814" data-name="Path 74814" d="M32.539,13.742H10.8a1.223,1.223,0,0,0-1.2,1.2V31.24a1.208,1.208,0,0,0,1.2,1.194H32.537a1.2,1.2,0,0,0,1.2-1.194V14.946a1.223,1.223,0,0,0-1.2-1.2M20.945,30.034H12.007V27.1h8.938Zm0-5.345H12.007v-3.2h8.938Zm0-5.6H12.007V16.15h8.938ZM31.334,30.034H23.164V27.1h8.171Zm0-5.345H23.164V21.5h8.171Zm0-5.6H23.164V16.15h8.171Z" transform="translate(-2.724 3.532)" fill="#fff"/>
  </g>
</svg>
