<svg id="No._of_Bills" data-name="No. of Bills" xmlns="http://www.w3.org/2000/svg" width="47.112" height="53" viewBox="0 0 47.112 53">
  <g id="Group_70893" data-name="Group 70893" transform="translate(0 0)">
    <path id="Path_74775" data-name="Path 74775" d="M11.408,11.431l1.279-.4a2.559,2.559,0,0,1,1.923-.08l-2.877.979a.435.435,0,0,0-.259.194l-.1.215.32.961a.411.411,0,0,0,.3.3l.068.026,3.3-1.081a1.34,1.34,0,0,1-.4.84,3.459,3.459,0,0,1-1.478.852l-.909.308a.472.472,0,0,0-.253.584l.333.975.1.2.133.07c.355.185.7.355,1.049.531a41.728,41.728,0,0,1,3.747,2.063l.282.073,1.692-.571a.454.454,0,0,0,.256-.4l-.285-.455c-1.457-.911-2.737-1.682-3.818-2.3a4.273,4.273,0,0,0,1.414-1.4,3.337,3.337,0,0,0,.438-2.139l1.137-.4a.473.473,0,0,0,.341-.444l-.309-.956.017-.038-.073-.065a.386.386,0,0,0-.25-.173l-.061-.026-1.4.434a3.422,3.422,0,0,0-.574-.664l1.528-.521a.477.477,0,0,0,.271-.429l-.3-.894a.467.467,0,0,0-.253-.314l-.185-.064L10.925,9.485a.44.44,0,0,0-.273.179l-.12.221.418,1.223a.459.459,0,0,0,.458.323" transform="translate(5.432 3.724)" fill="#fff"/>
    <path id="Path_74776" data-name="Path 74776" d="M31.213,16.93a1.15,1.15,0,1,0-.667-2.2L8.563,21.4A1.15,1.15,0,0,0,8.9,23.648a1.089,1.089,0,0,0,.332-.05Z" transform="translate(3.995 7.571)" fill="#fff"/>
    <path id="Path_74777" data-name="Path 74777" d="M31.937,23.451c-17.552,5.325-20.4,6.187-20.779,6.3l-.056.017a1.124,1.124,0,0,0-.8,1.267,1.1,1.1,0,0,0,1.069.978h.009a.222.222,0,0,0,.049.006c.2,0,1.052-.259,10.392-3.1l11.932-3.621a1.15,1.15,0,0,0,.208-2.116,1.135,1.135,0,0,0-.875-.085Z" transform="translate(5.306 11.89)" fill="#fff"/>
    <path id="Path_74778" data-name="Path 74778" d="M26.581,21.384l5.479-1.663a1.152,1.152,0,0,0,.765-1.434v0a1.152,1.152,0,0,0-1.434-.767L9.408,24.188a1.151,1.151,0,0,0,.332,2.252,1.112,1.112,0,0,0,.32-.047c.014,0,.017,0,16.522-5.01" transform="translate(4.431 9.01)" fill="#fff"/>
    <path id="Path_74780" data-name="Path 74780" d="M10.587,29.231a1.2,1.2,0,0,0,.335-.05L32.9,22.512a1.15,1.15,0,1,0-.667-2.2L10.254,26.98a1.151,1.151,0,0,0,.333,2.251" transform="translate(4.869 10.45)" fill="#fff"/>
    <path id="Path_74779" data-name="Path 74779" d="M44.982,31.279c-1.529-5-4.162-13.619-8.694-28.622A3.692,3.692,0,0,0,34.482.443a3.767,3.767,0,0,0-2.865-.28L13.084,5.772a5.359,5.359,0,0,0-9.977,2.71V8.8l-.412.12A3.739,3.739,0,0,0,.032,12.516L0,49.241A3.764,3.764,0,0,0,3.761,53H33.983a3.762,3.762,0,0,0,3.726-3.288l.02-5.223,6.7-2.039a3.746,3.746,0,0,0,2.683-3.674c.008-.506.008-.506-2.13-7.5m-9.557,13.91v4.252A1.448,1.448,0,0,1,33.983,50.7H17.272ZM13.035,48.054,4.7,20.56a3.934,3.934,0,0,0,6.278-3.165V8.823l5.9-1.789c3.554-1.078,7.294-2.211,10.853-3.3l2.951-.893c.511-.147.869-.261,1.137-.343a2.653,2.653,0,0,1,.881-.2,1.459,1.459,0,0,1,1.4,1.034L44.747,38.438a1.416,1.416,0,0,1-.117,1.113,1.486,1.486,0,0,1-.859.7c-8.422,2.554-14.41,4.374-18.674,5.669-8.8,2.674-10.387,3.156-10.571,3.172l-.094-.006a1.463,1.463,0,0,1-1.4-1.035M10.18,6.659A2.536,2.536,0,0,0,5.918,8.185c-.011.07-.033.215-.02,7.633v.332a1.144,1.144,0,1,0,2.289,0V8.5c0-.25.485-.249.485,0v8.9a1.629,1.629,0,1,1-3.259,0V8.482a3.049,3.049,0,0,1,5.363-2ZM12.249,50.7H3.761a1.457,1.457,0,0,1-1.455-1.455V20.583L10.841,48.73A3.782,3.782,0,0,0,12.249,50.7M2.742,11.508l.045-.035a1.881,1.881,0,0,1,.321-.217c.008,1.845.008,3.144.006,4.074l-.72-2.384a1.448,1.448,0,0,1,.347-1.438" transform="translate(0 0)" fill="#fff"/>
  </g>
</svg>
