<svg id="No._Pending_Charges_sheets" data-name="No. Pending Charges sheets" xmlns="http://www.w3.org/2000/svg" width="45.319" height="50.838" viewBox="0 0 45.319 50.838">
  <path id="Path_74874" data-name="Path 74874" d="M44.308,16.221,31.63,3.555a1.27,1.27,0,0,0-.926-.4H11.025a5.416,5.416,0,0,1,1.407,2.679H29.358v7.21a5.49,5.49,0,0,0,5.469,5.444h7.21l-.012,26.135a2.819,2.819,0,0,1-2.79,2.79H8.137a2.809,2.809,0,0,1-2.778-2.79V12.16A5.55,5.55,0,0,1,2.68,10.234V44.628A5.5,5.5,0,0,0,8.137,50.1h31.1a5.493,5.493,0,0,0,5.457-5.469V17.172a1.344,1.344,0,0,0-.383-.951m-9.481-.4a2.782,2.782,0,0,1-2.79-2.765v-.012l-.012-5.333,8.111,8.111ZM7.951,4.049a.53.53,0,0,0,0-.2A.851.851,0,0,0,7.544,3.2a5.21,5.21,0,0,0-1.259.3.786.786,0,0,0-.136.556v2.63a2.824,2.824,0,0,1,1.8-.827Z" transform="translate(0.629 0.741)" fill="#fff"/>
  <path id="Path_74875" data-name="Path 74875" d="M34.281,18.68H10.2A1.363,1.363,0,0,0,8.85,20.013V38.074A1.346,1.346,0,0,0,10.2,39.408H34.281a1.344,1.344,0,0,0,1.346-1.321V20.013a1.363,1.363,0,0,0-1.346-1.333M21.442,36.741H11.529V33.494h9.913Zm0-5.926H11.529V27.26h9.913Zm0-6.21H11.529V21.347h9.913ZM32.96,36.741H23.9V33.494H32.96Zm0-5.926H23.9V27.272H32.96Zm0-6.21H23.9V21.347H32.96Z" transform="translate(2.076 4.381)" fill="#fff"/>
  <path id="Path_74876" data-name="Path 74876" d="M15.283,6.58a7.7,7.7,0,1,0-9.3,8.592,6.97,6.97,0,0,0,1.691.2h.012A7.7,7.7,0,0,0,15.37,7.679a6.489,6.489,0,0,0-.086-1.1m-7.6,6.592A5.453,5.453,0,0,1,5.987,12.9a5.55,5.55,0,0,1-2.679-1.926A5.479,5.479,0,0,1,11.654,3.9a5.448,5.448,0,0,1,1.518,3.778,5.49,5.49,0,0,1-5.494,5.494" fill="#fff"/>
  <path id="Path_74877" data-name="Path 74877" d="M7.294,3.873a.53.53,0,0,1,0,.2V7.639a.944.944,0,0,1-.9,1,.96.96,0,0,1-.9-1V4.071a.786.786,0,0,1,.136-.556.914.914,0,0,1,.679-.444.92.92,0,0,1,.988.8" transform="translate(1.286 0.719)" fill="#fff"/>
  <path id="Path_74878" data-name="Path 74878" d="M6.415,9.92A1.01,1.01,0,1,1,7.421,8.892V8.91A1.006,1.006,0,0,1,6.415,9.916Z" transform="translate(1.266 1.852)" fill="#fff"/>
</svg>
