<svg xmlns="http://www.w3.org/2000/svg" width="40.076" height="56.571" viewBox="0 0 40.076 56.571">
  <g id="Not_billed_IC" data-name="Not billed IC" transform="translate(-6.25 -6.749)">
    <g id="Group_70889" data-name="Group 70889" transform="translate(7.5 7.499)">
      <path id="Path_74773" data-name="Path 74773" d="M33.1,45.089H9.131A1.631,1.631,0,0,0,7.5,46.72V94.073a.662.662,0,0,0,1.105.492l2.864-2.584a.723.723,0,0,1,.967,0l2.533,2.286a2.144,2.144,0,0,0,2.872,0l2.041-1.842a1.454,1.454,0,0,1,1.95,0l2.041,1.842a2.144,2.144,0,0,0,2.872,0l2.041-1.842a1.454,1.454,0,0,1,1.95,0l2.041,1.842a2.145,2.145,0,0,0,2.873,0l2.04-1.842a1.454,1.454,0,0,1,1.95,0l2.47,2.23a.6.6,0,0,0,1.007-.448L42.857,52.17" transform="translate(-7.5 -40.399)" fill="none" stroke="#fff" stroke-linecap="round" stroke-linejoin="round" stroke-width="2.5"/>
      <g id="Group_70899" data-name="Group 70899" transform="translate(5.553 23.6)">
        <line id="Line_767" data-name="Line 767" x2="11.838" fill="none" stroke="#fff" stroke-linecap="round" stroke-linejoin="round" stroke-width="2.5"/>
        <line id="Line_768" data-name="Line 768" x2="3.98" transform="translate(20.129)" fill="none" stroke="#fff" stroke-linecap="round" stroke-linejoin="round" stroke-width="2.5"/>
      </g>
      <g id="Group_70900" data-name="Group 70900" transform="translate(5.553 16.659)">
        <line id="Line_769" data-name="Line 769" x2="11.838" fill="none" stroke="#fff" stroke-linecap="round" stroke-linejoin="round" stroke-width="2.5"/>
        <line id="Line_770" data-name="Line 770" x2="3.98" transform="translate(20.129)" fill="none" stroke="#fff" stroke-linecap="round" stroke-linejoin="round" stroke-width="2.5"/>
      </g>
      <g id="Group_70898" data-name="Group 70898" transform="translate(5.553 29.153)">
        <line id="Line_771" data-name="Line 771" x2="11.838" fill="none" stroke="#fff" stroke-linecap="round" stroke-linejoin="round" stroke-width="2.5"/>
        <line id="Line_772" data-name="Line 772" x2="3.98" transform="translate(20.129)" fill="none" stroke="#fff" stroke-linecap="round" stroke-linejoin="round" stroke-width="2.5"/>
      </g>
      <line id="Line_775" data-name="Line 775" x2="25.682" transform="translate(5.553 46.506)" fill="none" stroke="#fff" stroke-linecap="round" stroke-linejoin="round" stroke-width="2.5"/>
      <g id="Group_70890" data-name="Group 70890" transform="translate(5.553 36.094)">
        <line id="Line_776" data-name="Line 776" x2="5.553" transform="translate(18.741 2.776)" fill="none" stroke="#fff" stroke-linecap="round" stroke-linejoin="round" stroke-width="2.5"/>
        <rect id="Rectangle_24938" data-name="Rectangle 24938" width="12.308" height="5.117" rx="2.559" fill="none" stroke="#fff" stroke-linecap="round" stroke-linejoin="round" stroke-width="2.5"/>
      </g>
      <path id="Path_74774" data-name="Path 74774" d="M215.574,13.556A6.057,6.057,0,1,0,221.631,7.5,6.057,6.057,0,0,0,215.574,13.556Z" transform="translate(-189.612 -7.499)" fill="none" stroke="#fff" stroke-linecap="round" stroke-linejoin="round" stroke-width="1.5"/>
      <line id="Line_777" data-name="Line 777" x1="2.736" y2="2.737" transform="translate(30.651 4.689)" fill="none" stroke="#fff" stroke-linecap="round" stroke-linejoin="round" stroke-width="1"/>
      <line id="Line_778" data-name="Line 778" x1="2.736" y1="2.737" transform="translate(30.651 4.689)" fill="none" stroke="#fff" stroke-linecap="round" stroke-linejoin="round" stroke-width="1"/>
    </g>
  </g>
</svg>
