<svg id="Not_Received_in_office" data-name="Not Received in office" xmlns="http://www.w3.org/2000/svg" width="47.422" height="42.979" viewBox="0 0 47.422 42.979">
  <path id="Path_74794" data-name="Path 74794" d="M44.791,37.717h-1.5V14.183h1.5a.8.8,0,0,0,.8-.8V9.722a.8.8,0,0,0-.8-.8H36.277V5.262h2.51a.8.8,0,0,0,.8-.8V.8a.8.8,0,0,0-.8-.8H8.306a.8.8,0,0,0-.8.8V4.46a.8.8,0,0,0,.8.8h2.511v3.66H2.632a.8.8,0,0,0-.8.8v3.658a.8.8,0,0,0,.8.8h1.5V37.717h-1.5A2.634,2.634,0,0,0,0,40.349v1.83a.8.8,0,0,0,.8.8H46.622a.8.8,0,0,0,.8-.8v-1.83a2.634,2.634,0,0,0-2.631-2.632m-18.463-.032H20.766V31.439h5.562Zm15.359,0h-5.41V14.178h5.414Zm2.3-25.1H36.277V10.522h7.713ZM9.106,1.6H37.988V3.66H9.106Zm25.57,3.66V37.685H27.93V30.64a.8.8,0,0,0-.8-.8H19.966a.8.8,0,0,0-.8.8v7.046H12.419V5.261ZM3.431,10.522h7.386v2.059H3.431Zm7.385,3.66V37.69H5.734V14.183Zm35,27.2H1.6V40.349A1.031,1.031,0,0,1,2.631,39.32H44.8a1.031,1.031,0,0,1,1.029,1.029Z" fill="#fff"/>
  <path id="Path_74795" data-name="Path 74795" d="M12.994,11.613h6.352a.8.8,0,0,0,.8-.8V6.962a.8.8,0,0,0-.8-.8H12.994a.8.8,0,0,0-.8.8v3.845a.8.8,0,0,0,.8.8h0m.8-3.845h4.749v2.245H13.794Z" transform="translate(2.284 1.154)" fill="#fff"/>
  <path id="Path_74796" data-name="Path 74796" d="M21.578,11.613h6.346a.8.8,0,0,0,.8-.8V6.962a.8.8,0,0,0-.8-.8H21.578a.8.8,0,0,0-.8.8v3.845a.8.8,0,0,0,.8.8Zm.8-3.845h4.749v2.245H22.378Z" transform="translate(3.891 1.154)" fill="#fff"/>
  <path id="Path_74797" data-name="Path 74797" d="M21.578,17.934h6.346a.8.8,0,0,0,.8-.8V13.287a.8.8,0,0,0-.8-.8H21.578a.8.8,0,0,0-.8.8v3.845a.8.8,0,0,0,.8.8Zm.8-3.845h4.749v2.245H22.378Z" transform="translate(3.891 2.338)" fill="#fff"/>
  <path id="Path_74798" data-name="Path 74798" d="M12.994,17.934h6.352a.8.8,0,0,0,.8-.8V13.287a.8.8,0,0,0-.8-.8H12.994a.8.8,0,0,0-.8.8v3.845a.8.8,0,0,0,.8.8Zm.8-3.845h4.749v2.245H13.794Z" transform="translate(2.284 2.338)" fill="#fff"/>
  <path id="Path_74799" data-name="Path 74799" d="M21.578,24.258h6.346a.8.8,0,0,0,.8-.8V19.61a.8.8,0,0,0-.8-.8H21.578a.8.8,0,0,0-.8.8v3.848A.8.8,0,0,0,21.578,24.258Zm.8-3.847h4.749v2.245H22.378Z" transform="translate(3.891 3.522)" fill="#fff"/>
  <path id="Path_74800" data-name="Path 74800" d="M12.994,24.258h6.352a.8.8,0,0,0,.8-.8V19.61a.8.8,0,0,0-.8-.8H12.994a.8.8,0,0,0-.8.8v3.848a.8.8,0,0,0,.8.8m.8-3.847h4.749v2.245H13.794Z" transform="translate(2.284 3.522)" fill="#fff"/>
</svg>
