<svg xmlns="http://www.w3.org/2000/svg" width="38.137" height="41.168" viewBox="0 0 38.137 41.168">
  <g id="Outstanding_NC_in_the_current_financial_year" data-name="Outstanding NC in the current financial year" transform="translate(-23080 -6611.075)">
    <g id="Group_70874" data-name="Group 70874" transform="translate(23080 6611.075)">
      <path id="Path_74733" data-name="Path 74733" d="M58.438,49a5.717,5.717,0,1,0-5.718-5.718A5.722,5.722,0,0,0,58.438,49ZM34.227,45.134V39.842a.583.583,0,0,0-.584-.583H28.352V10.417a.25.25,0,0,1,.25-.25H55.47a.251.251,0,0,1,.25.25V36.96a6.878,6.878,0,0,0-3.912,8.175Zm-1.167-.825V40.425H29.176ZM58.438,36.4a6.832,6.832,0,0,0-1.552.178V10.417A1.419,1.419,0,0,0,55.47,9H28.6a1.418,1.418,0,0,0-1.416,1.417V39.842a.58.58,0,0,0,.171.413l5.875,5.876a.583.583,0,0,0,.412.171H52.251a6.884,6.884,0,1,0,6.187-9.9ZM33.362,22.1a.906.906,0,1,0,.906.905A.906.906,0,0,0,33.362,22.1Zm5.783,1.879a.906.906,0,1,0,.906.905A.907.907,0,0,0,39.144,23.982Zm5.782-5.534a.906.906,0,1,0,.906.905A.906.906,0,0,0,44.926,18.449Zm5.783-5.025a.906.906,0,1,0,.905.905A.907.907,0,0,0,50.709,13.423ZM33.362,25.082a2.071,2.071,0,0,0,1.71-.9l2,.65c0,.02,0,.04,0,.059a2.073,2.073,0,1,0,3.912-.953l2.91-2.785a2.071,2.071,0,0,0,2.916-2.66l2.782-2.418a2.079,2.079,0,1,0-.765-.88L46.044,17.61a2.071,2.071,0,0,0-2.957,2.7l-2.91,2.785a2.069,2.069,0,0,0-2.743.627l-2-.651c0-.02,0-.04,0-.06a2.072,2.072,0,1,0-2.072,2.073ZM51.729,36.4V20.568h-2.04V36.4Zm1.167.584a.584.584,0,0,1-.584.584H49.105a.584.584,0,0,1-.584-.584v-17a.584.584,0,0,1,.584-.583h3.206a.583.583,0,0,1,.584.583ZM45.946,36.4V25.593H43.907V36.4Zm.584-11.973H43.323a.583.583,0,0,0-.583.583V36.983a.584.584,0,0,0,.583.584h3.206a.584.584,0,0,0,.583-.584V25.01A.583.583,0,0,0,46.529,24.427ZM40.164,36.4V31.127h-2.04V36.4Zm.583-6.439H37.541a.583.583,0,0,0-.584.584v6.439a.584.584,0,0,0,.584.584h3.206a.584.584,0,0,0,.584-.584V30.544A.584.584,0,0,0,40.747,29.96ZM34.381,36.4V29.248h-2.04V36.4Zm.584-8.318H31.758a.584.584,0,0,0-.583.584v8.318a.584.584,0,0,0,.583.584h3.207a.584.584,0,0,0,.584-.584V28.665A.583.583,0,0,0,34.965,28.082Z" transform="translate(-27.185 -9)" fill="#fff" fill-rule="evenodd"/>
    </g>
    <g id="Group_70875" data-name="Group 70875" transform="translate(23109.328 6642.593)">
      <path id="Path_74734" data-name="Path 74734" d="M76.794,1.431a.14.14,0,0,0-.1-.04h-.767a1.553,1.553,0,0,0-.287-.646h1.045A.138.138,0,0,0,76.826.6V.144A.138.138,0,0,0,76.682,0H72.95a.138.138,0,0,0-.144.144v.6a.146.146,0,0,0,.144.144H73.6q.947,0,1.2.507H72.95a.138.138,0,0,0-.144.144v.458a.138.138,0,0,0,.144.143h1.916a.877.877,0,0,1-.46.561,2.025,2.025,0,0,1-.953.193h-.5a.146.146,0,0,0-.144.144V3.6a.134.134,0,0,0,.04.1q.861.915,2.234,2.562a.132.132,0,0,0,.112.054h.875a.13.13,0,0,0,.13-.081.123.123,0,0,0-.018-.153q-1.31-1.606-2.059-2.4a2.275,2.275,0,0,0,1.238-.493,1.677,1.677,0,0,0,.579-1.05h.754a.138.138,0,0,0,.144-.143V1.534A.14.14,0,0,0,76.794,1.431Z" transform="translate(-72.806 0)" fill="#fff"/>
    </g>
  </g>
</svg>
