<svg xmlns="http://www.w3.org/2000/svg" width="36.527" height="42.77" viewBox="0 0 36.527 42.77">
  <path id="Pending_Calls" data-name="Pending Calls" d="M.013,38a4.132,4.132,0,0,1,0-.666v-6.7q0-8.646-.009-17.291A4.6,4.6,0,0,1,1.438,9.862C4.126,7.2,6.876,4.439,9.845,1.426A4.5,4.5,0,0,1,13.248,0c2.223.011,4.423.013,6.623.013H28.1A4.075,4.075,0,0,1,32.485,4.4V6.027l.338.116c1.793.613,2.7,1.722,2.7,3.292,0,1.553-.912,2.661-2.707,3.294l-.334.117V37.415c0,.114,0,.228-.006.34a1.021,1.021,0,0,1-2.038-.026c-.006-.092,0-.186,0-.279v-25.4c0-1.025.327-1.355,1.349-1.355h.255a2.473,2.473,0,0,0,.271-.013,1.257,1.257,0,0,0,.017-2.5,2.208,2.208,0,0,0-.257-.013l-3.793,0q-1.449,0-2.9-.007a1.029,1.029,0,0,1-1.027-.916,1.017,1.017,0,0,1,.78-1.1,2.072,2.072,0,0,1,.45-.031h4.788v-.5c0-.2.007-.391.014-.585a7.557,7.557,0,0,0-.041-1.425,1.878,1.878,0,0,0-1.9-1.539q-3.436,0-6.869-.006t-6.87.008a2,2,0,0,0-1.991,2.008c0,.04,0,.08,0,.12,0,1.511,0,7.251,0,7.251,0,.96-.343,1.3-1.31,1.3H4.268A2.035,2.035,0,0,0,2.06,14.955V37.47A2.048,2.048,0,0,0,4.294,39.7H28.245a1.927,1.927,0,0,1,.381.023,1.024,1.024,0,0,1-.149,2.025c-.059,0-.119.006-.179.006l-23.886,0c-.112.009-.224.014-.334.014A4.089,4.089,0,0,1,.013,38ZM3.7,10.67h6.944V3.7Zm12.938,21.8-.081-.015c-.028-.006-.056-.012-.084-.015-.1-.013-.192-.023-.288-.034-.2-.023-.41-.046-.617-.086a8.133,8.133,0,0,1-4.589-2.574A8.219,8.219,0,0,1,8.823,23.24a7.9,7.9,0,0,1,2-4.648,8.061,8.061,0,0,1,6.187-2.9,9.7,9.7,0,0,1,1.683.153,8.025,8.025,0,0,1,4.923,2.941c0-.267,0-.534,0-.8a.914.914,0,0,1,.572-.864.966.966,0,0,1,.38-.081.882.882,0,0,1,.627.268,1.12,1.12,0,0,1,.2.3c.016.031.032.062.049.091l.044.074v2.384l-.02.053c-.03.08-.056.161-.083.243a2.954,2.954,0,0,1-.249.605,2.167,2.167,0,0,1-1.857,1.11c-.282.011-.59.017-.943.017-.308,0-.615,0-.923-.008l-.193,0a.939.939,0,0,1,0-1.877c.225,0,.451-.005.676-.005h.5c-.066-.093-.132-.183-.2-.268a6.349,6.349,0,0,0-3.74-2.309,7,7,0,0,0-1.4-.147,6.216,6.216,0,0,0-3.678,1.22,6.5,6.5,0,0,0-1.626,8.895,6.3,6.3,0,0,0,4.436,2.823,6.6,6.6,0,0,0,.926.051c.15,0,.3,0,.448.009h.044l.147,0a1.2,1.2,0,0,1,.231.019.928.928,0,0,1,.745.983.941.941,0,0,1-.866.869c-.065.005-.13.012-.194.02l-.11.011Zm3.561-.649a.961.961,0,0,1-.883-.708.919.919,0,0,1,.424-1.046,7.317,7.317,0,0,1,.672-.34.935.935,0,0,1,.861,1.655c-.217.13-.443.237-.661.34l-.022.01a.924.924,0,0,1-.242.069l-.061.012-.044.01Zm1.954-2.07a.934.934,0,0,1-.161-1.317c.15-.2.3-.387.456-.557a.909.909,0,0,1,.676-.3.931.931,0,0,1,.346.066,1.025,1.025,0,0,1,.622.858l.011.088-.037.08c-.017.037-.032.074-.048.112a1.775,1.775,0,0,1-.16.319,4.663,4.663,0,0,1-.325.414l-.067.079a.97.97,0,0,1-.74.356A.915.915,0,0,1,22.152,29.753ZM24.06,27.2a.962.962,0,0,1-.735-1.017v-.046l.013-.044c.015-.053.031-.114.049-.181a5.057,5.057,0,0,1,.207-.66.866.866,0,0,1,.816-.517.972.972,0,0,1,.3.048.915.915,0,0,1,.63,1.007,5.373,5.373,0,0,1-.215.84.89.89,0,0,1-.864.589A1.1,1.1,0,0,1,24.06,27.2Zm-9.7-1a.93.93,0,0,1,.268-.932l.433-.436q.563-.566,1.128-1.129c.006,0,.007-.01.007-.026,0-1.525,0-1.65,0-3.175a.946.946,0,0,1,.943-1.008.943.943,0,0,1,.933.962c0,.138,0,.179,0,.174v1.6q0,.9,0,1.793a1.033,1.033,0,0,1-.309.76l-.752.756c-.557.559-.493.5-1.053,1.053a1.011,1.011,0,0,1-.712.306A.918.918,0,0,1,14.363,26.195Zm3.714-5.571c0-.262,0-.174,0-.086,0,.042,0,.083,0,.088Z" transform="translate(0.5 0.501)" fill="#fff" stroke="rgba(0,0,0,0)" stroke-width="1"/>
</svg>
