<svg xmlns="http://www.w3.org/2000/svg" width="45.234" height="52.999" viewBox="0 0 45.234 52.999">
  <g id="Pending_Calls_to_remarks" data-name="Pending Calls to remarks" transform="translate(-21345 -15414)">
    <g id="Pending_Calls_to_remarks-2" data-name="Pending Calls to remarks" transform="translate(21345 15414)">
      <path id="Path_1600" data-name="Path 1600" d="M4851.429,319.313a5.164,5.164,0,0,1-5.31-4.5,6.264,6.264,0,0,1-.05-.983V303.592q0-10.233-.009-20.465a5.645,5.645,0,0,1,1.736-4.209q5.44-5.4,10.832-10.838a5.7,5.7,0,0,1,4.234-1.763c2.8.01,5.568.011,8.34.011h10.7a5.17,5.17,0,0,1,5.519,5.508v2.125l.43.148c2.286.787,3.445,2.194,3.445,4.18s-1.159,3.386-3.447,4.183l-.428.148,0,31.186c0,.145,0,.291-.008.434a1.3,1.3,0,0,1-2.6-.03c-.007-.118-.006-.235,0-.354v-32.24c0-1.3.417-1.723,1.715-1.723l.32,0c.115,0,.231,0,.348-.014a1.6,1.6,0,0,0,.026-3.183,3.1,3.1,0,0,0-.326-.015l-4.716.005q-1.9,0-3.8-.009a1.309,1.309,0,0,1-1.309-1.159,1.293,1.293,0,0,1,.994-1.4,2.5,2.5,0,0,1,.569-.039l6.1,0v-.636c0-.248.009-.494.018-.741a9.546,9.546,0,0,0-.052-1.809,2.389,2.389,0,0,0-2.429-1.954q-4.571-.006-9.143-.008-4.178,0-8.354.009a2.543,2.543,0,0,0-2.54,2.7c0,1.975,0,9.206,0,9.206,0,1.22-.436,1.653-1.667,1.653h-9.083a2.581,2.581,0,0,0-2.812,2.8v28.579a2.609,2.609,0,0,0,2.843,2.834l30.595,0c.091,0,.184,0,.274.01a1.3,1.3,0,0,1-.024,2.591,1.733,1.733,0,0,1-.2.008H4865.32Zm-.62-39.463h8.8v-8.8Z" transform="translate(-4846.061 -266.316)" fill="#fff"/>
    </g>
    <g id="Group_70928" data-name="Group 70928" transform="translate(21357.689 15435.57)">
      <path id="Path_74931" data-name="Path 74931" d="M26.092,14.717a1.126,1.126,0,0,0-.328-.044.947.947,0,0,0-.9.558,5.808,5.808,0,0,0-.219.722c-.022.076-.043.142-.054.2l-.022.054v.044a1.057,1.057,0,0,0,.809,1.115,1.605,1.605,0,0,0,.219.022.968.968,0,0,0,.94-.645,5.18,5.18,0,0,0,.241-.919,1,1,0,0,0-.689-1.1m-.678,4.068a1.044,1.044,0,0,0-1.061-1.006,1,1,0,0,0-.733.328,6.857,6.857,0,0,0-.5.612,1.023,1.023,0,0,0,.809,1.651,1.052,1.052,0,0,0,.81-.394L24.8,19.9a4.963,4.963,0,0,0,.361-.46,3.6,3.6,0,0,0,.175-.35.591.591,0,0,1,.054-.12l.033-.087Zm-2.679,1.869a1.019,1.019,0,0,0-1.345-.525,6.531,6.531,0,0,0-.734.371A1,1,0,0,0,20.2,21.64a1.028,1.028,0,0,0,.962.777H21.2l.055-.011.066-.011a.791.791,0,0,0,.262-.076l.022-.011a6.487,6.487,0,0,0,.722-.371,1.013,1.013,0,0,0,.4-1.28M26.891,6.974a.48.48,0,0,0-.054-.1,1.072,1.072,0,0,0-.219-.328.947.947,0,0,0-.678-.3,1.1,1.1,0,0,0-.416.087,1.01,1.01,0,0,0-.622.952v.876a8.766,8.766,0,0,0-5.393-3.215,11.28,11.28,0,0,0-1.838-.175A8.871,8.871,0,0,0,10.9,7.947a8.638,8.638,0,0,0-2.187,5.086,9.016,9.016,0,0,0,2.362,7.119,8.836,8.836,0,0,0,5.02,2.811c.218.044.449.066.667.1.11.01.208.022.318.033a.308.308,0,0,1,.1.022l.087.01h1.006l.12-.01c.066-.011.142-.011.208-.022a1.023,1.023,0,0,0,.132-2.024,1.949,1.949,0,0,0-.252-.022h-.208c-.163-.011-.328-.011-.492-.011a6.024,6.024,0,0,1-1.006-.054A6.912,6.912,0,0,1,11.918,17.9,7.107,7.107,0,0,1,13.7,8.166a6.881,6.881,0,0,1,4.025-1.335A8.068,8.068,0,0,1,19.257,7a6.981,6.981,0,0,1,4.09,2.527c.066.087.142.185.219.3H22.275a1.028,1.028,0,0,0,0,2.056h.208c.34.011.678.011,1.018.011.383,0,.721-.011,1.028-.023a2.362,2.362,0,0,0,2.034-1.214,3.467,3.467,0,0,0,.262-.655c.033-.1.066-.186.1-.274l.022-.054v-2.6Z" transform="translate(-8.661 -4.776)" fill="#fff"/>
      <path id="Union_29" data-name="Union 29" d="M3.079,5.535a1.1,1.1,0,0,1-.729-.364c-.747-.746-1.4-1.4-2-2A1.117,1.117,0,0,1,0,2.418V2.379A.964.964,0,0,1,.3,1.71a.965.965,0,0,1,.663-.284H1a1.089,1.089,0,0,1,.742.346c.371.371.739.741,1.125,1.129l.251.252c.925-.93,1.866-1.869,2.8-2.8A1.107,1.107,0,0,1,6.668,0h.039a.953.953,0,0,1,.678.3,1,1,0,0,1-.017,1.4.968.968,0,0,1-.074.066C6.207,2.858,5.064,4,3.894,5.17a1.108,1.108,0,0,1-.733.365l-.041,0Z" transform="translate(5.31 7.74)" fill="#fff"/>
    </g>
  </g>
</svg>
