<svg id="Pending_invoice_for_finalization" data-name="Pending invoice for finalization" xmlns="http://www.w3.org/2000/svg" xmlns:xlink="http://www.w3.org/1999/xlink" width="44.137" height="53" viewBox="0 0 44.137 53">
  <defs>
    <clipPath id="clip-path">
      <rect id="Rectangle_24943" data-name="Rectangle 24943" width="44.137" height="53" fill="none"/>
    </clipPath>
  </defs>
  <g id="Group_70931" data-name="Group 70931" clip-path="url(#clip-path)">
    <path id="Path_74934" data-name="Path 74934" d="M5.5,16.935H27.32a1.2,1.2,0,1,0,0-2.392H5.5a1.2,1.2,0,1,0,0,2.392Z" transform="translate(1.647 5.566)" fill="#fff"/>
    <path id="Path_74935" data-name="Path 74935" d="M11.96,12.865H24.944a1.2,1.2,0,0,0-.083-2.392H11.877a1.2,1.2,0,0,0-1.148,1.244,1.18,1.18,0,0,0,1.213,1.148h.018" transform="translate(4.106 4.008)" fill="#fff"/>
    <path id="Path_74936" data-name="Path 74936" d="M5.5,21.009H27.321a1.2,1.2,0,1,0,0-2.406H5.5a1.2,1.2,0,0,0,0,2.406Z" transform="translate(1.645 7.12)" fill="#fff"/>
    <path id="Path_74937" data-name="Path 74937" d="M7.851,15.068a.4.4,0,0,0,.318.166H9.482A.413.413,0,0,0,9.842,15a.4.4,0,0,0-.055-.456c-1.134-1.383-2.06-2.475-2.765-3.249a3.5,3.5,0,0,0,1.535-.719A2.613,2.613,0,0,0,9.441,9.08h.94a.423.423,0,0,0,.429-.387V7.974a.44.44,0,0,0-.138-.3l-.138-.138-.041.041a.229.229,0,0,0-.1-.014H9.427a2.5,2.5,0,0,0-.221-.525h1.161a.414.414,0,0,0,.415-.415V5.942a.4.4,0,0,0-.373-.429H4.864a.416.416,0,0,0-.415.387v.926a.425.425,0,0,0,.415.415h.968a2.14,2.14,0,0,1,1.327.332H4.878a.423.423,0,0,0-.429.387v.705a.449.449,0,0,0,.111.29.431.431,0,0,0,.29.124H7.38a1.135,1.135,0,0,1-.456.429,2.656,2.656,0,0,1-1.3.263h-.76a.438.438,0,0,0-.415.429v.816a.378.378,0,0,0,.124.29c.843.9,1.95,2.171,3.277,3.761" transform="translate(1.703 2.11)" fill="#fff"/>
    <path id="Path_74938" data-name="Path 74938" d="M43.21,43.832a1.507,1.507,0,0,0-.36-.041,1.012,1.012,0,0,0-.968.608,6.567,6.567,0,0,0-.249.788,2.138,2.138,0,0,1-.055.207l-.028.069v.041a1.167,1.167,0,0,0,.885,1.217c.083.014.166.014.235.028a.38.38,0,0,0,.18-.028,9.027,9.027,0,0,0,.705-2.7,1.062,1.062,0,0,0-.346-.194M35.177,50.76a1.7,1.7,0,0,0-.277-.028h-.221c-.18-.014-.36-.014-.539-.014a7.229,7.229,0,0,1-1.092-.055,7.583,7.583,0,0,1-5.3-3.36A7.735,7.735,0,0,1,29.7,36.7a7.481,7.481,0,0,1,4.4-1.452,9.826,9.826,0,0,1,1.673.18,7.665,7.665,0,0,1,4.452,2.752c.069.1.152.207.235.332h-.83a6.958,6.958,0,0,1,1.231,2.24c.221,0,.442,0,.65-.014a2.535,2.535,0,0,0,1.659-.664.729.729,0,0,0-.041-.166,9.607,9.607,0,0,0-7.01-6.291v-22.5a1.2,1.2,0,0,0-.36-.857L25.843.346A1.193,1.193,0,0,0,25,0H4.176A4.19,4.19,0,0,0,0,4.176V41.855a4.172,4.172,0,0,0,4.176,4.176h20.8a9.542,9.542,0,0,0,11.02,6.305,1.092,1.092,0,0,0,.124-.525,1.12,1.12,0,0,0-.94-1.051M26.2,4.093l5.821,5.821H27.986A1.767,1.767,0,0,1,26.2,8.144Zm-1.728,38.9c0,.207.014.429.028.65H4.176a1.776,1.776,0,0,1-1.77-1.784V4.176a1.785,1.785,0,0,1,1.77-1.784H23.8V8.144a4.193,4.193,0,0,0,4.19,4.176h5.724v21.1a9.569,9.569,0,0,0-9.237,9.568m16.842,4.19a1.012,1.012,0,0,0-.788.36,5.028,5.028,0,0,0-.553.664,1.106,1.106,0,0,0,.194,1.562,1.171,1.171,0,0,0,.415.207,9.312,9.312,0,0,0,1.756-2.2,1.126,1.126,0,0,0-1.023-.595M39.56,50.3a1.116,1.116,0,0,0-1.466-.567,5.427,5.427,0,0,0-.8.4,1.056,1.056,0,0,0-.5,1.244.989.989,0,0,0,.415.622,9.309,9.309,0,0,0,2.447-1.258v-.014a1.133,1.133,0,0,0-.1-.415Z" fill="#fff"/>
    <path id="Path_74939" data-name="Path 74939" d="M28.467,23.917a1.214,1.214,0,0,0-1.161-1.244H5.486a1.2,1.2,0,0,0,0,2.406H27.306a1.227,1.227,0,0,0,1.161-1.161" transform="translate(1.661 8.678)" fill="#fff"/>
    <path id="Path_74940" data-name="Path 74940" d="M17.406,26.743H5.5a1.2,1.2,0,1,0,0,2.392H17.406a1.2,1.2,0,0,0,0-2.392" transform="translate(1.647 10.235)" fill="#fff"/>
    <path id="Path_74941" data-name="Path 74941" d="M37.379,26.262c-.014-.041-.041-.069-.055-.111a1.2,1.2,0,0,0-.249-.36,1.025,1.025,0,0,0-.733-.318,1.35,1.35,0,0,0-.456.1,1.12,1.12,0,0,0-.678,1.037v.954a9.541,9.541,0,0,0-5.794-3.484c-.028,0-.055-.014-.083-.014a10.826,10.826,0,0,0-2-.194,2.448,2.448,0,0,0-.318.014,9.638,9.638,0,0,0-7.052,3.443,9.42,9.42,0,0,0-2.392,5.545,9.19,9.19,0,0,0-.028,1.632,8.806,8.806,0,0,0,.442,2.392,9.97,9.97,0,0,0,7.633,6.789c.235.055.484.069.733.111.111.014.221.028.346.041a.235.235,0,0,1,.1.014l.1.014H27.99l.124-.014a1.19,1.19,0,0,1,.221-.014,1.162,1.162,0,0,0,1.079-1.161,1.12,1.12,0,0,0-.94-1.051A1.7,1.7,0,0,0,28.2,41.6h-.221c-.18-.014-.36-.014-.539-.014a7.23,7.23,0,0,1-1.092-.055,7.583,7.583,0,0,1-5.3-3.36A7.735,7.735,0,0,1,23,27.562a7.481,7.481,0,0,1,4.4-1.452,9.826,9.826,0,0,1,1.673.18,7.665,7.665,0,0,1,4.452,2.752c.069.1.152.207.235.332h-1.41a1.115,1.115,0,0,0-1.12,1.12,1.133,1.133,0,0,0,1.12,1.12h.235c.36.014.733.014,1.106.014.166,0,.318,0,.47-.014.221,0,.442,0,.65-.014a2.535,2.535,0,0,0,1.659-.664,2.362,2.362,0,0,0,.553-.664,4.388,4.388,0,0,0,.277-.705c.041-.111.083-.207.111-.3l.028-.055V26.359Zm-4.522,14.92v-.014a1.116,1.116,0,0,0-1.466-.567,5.427,5.427,0,0,0-.8.4,1.056,1.056,0,0,0-.5,1.244.989.989,0,0,0,.415.622,1,1,0,0,0,.622.221h.111l.069-.014a.894.894,0,0,0,.29-.083l.028-.014q.394-.187.788-.415a1.114,1.114,0,0,0,.539-.954V41.6a1.133,1.133,0,0,0-.1-.415m2.779-2.544a1.126,1.126,0,0,0-1.023-.595,1.012,1.012,0,0,0-.788.36,5.028,5.028,0,0,0-.553.664,1.106,1.106,0,0,0,.194,1.562,1.171,1.171,0,0,0,.415.207,1.531,1.531,0,0,0,.263.028,1.163,1.163,0,0,0,.885-.429l.069-.083c.138-.166.277-.332.4-.512.069-.111.124-.249.194-.373a.578.578,0,0,1,.055-.138l.028-.1v-.1a1.216,1.216,0,0,0-.138-.5m1.217-3.747a1.062,1.062,0,0,0-.346-.194,1.507,1.507,0,0,0-.36-.041,1.012,1.012,0,0,0-.968.608,6.567,6.567,0,0,0-.249.788,2.139,2.139,0,0,1-.055.207l-.028.069v.041a1.167,1.167,0,0,0,.885,1.217c.083.014.166.014.235.028a.38.38,0,0,0,.18-.028,1.056,1.056,0,0,0,.857-.678,8.32,8.32,0,0,0,.263-1.009,1.078,1.078,0,0,0-.415-1.009m-9.347-6.485h-.1a1.111,1.111,0,0,0-1.051,1.161.043.043,0,0,1,.014.028v3.8l-.014.014c-.456.456-.9.913-1.355,1.355l-.512.525a1.1,1.1,0,0,0-.318,1.106,1.084,1.084,0,0,0,1.065.83,1.22,1.22,0,0,0,.843-.373c.664-.65.581-.581,1.244-1.244l.885-.913a1.142,1.142,0,0,0,.373-.9V29.539a1.11,1.11,0,0,0-1.079-1.134" transform="translate(6.703 9.136)" fill="#fff"/>
  </g>
</svg>
