<svg xmlns="http://www.w3.org/2000/svg" xmlns:xlink="http://www.w3.org/1999/xlink" width="45.556" height="53.356" viewBox="0 0 45.556 53.356">
  <defs>
    <clipPath id="clip-path">
      <rect id="Rectangle_17857" data-name="Rectangle 17857" width="45.556" height="53.356" fill="#fff"/>
    </clipPath>
  </defs>
  <g id="Group_3662" data-name="Group 3662" transform="translate(0 0.001)">
    <g id="Group_3561" data-name="Group 3561" transform="translate(0 0)" clip-path="url(#clip-path)">
      <path id="Path_38555" data-name="Path 38555" d="M5.652,53.353A5.236,5.236,0,0,1,.011,47.706V39.139Q.017,28.091,0,17.045A5.863,5.863,0,0,1,1.837,12.6c3.448-3.4,6.975-6.93,10.783-10.78A5.786,5.786,0,0,1,16.984,0c2.851.014,5.673.017,8.494.017l10.559,0a5.208,5.208,0,0,1,5.618,5.607V7.7l.434.148c2.3.784,3.468,2.2,3.467,4.207,0,1.984-1.17,3.4-3.472,4.209l-.429.15,0,31.393c0,.146.005.291-.008.435a1.31,1.31,0,0,1-2.614-.033c-.008-.117-.005-.238-.005-.356V15.4c0-1.31.42-1.731,1.73-1.731l.327,0a3.16,3.16,0,0,0,.347-.017,1.606,1.606,0,0,0,.022-3.2,2.845,2.845,0,0,0-.33-.017l-4.865.006q-1.858,0-3.713-.009a1.318,1.318,0,0,1-1.317-1.17,1.3,1.3,0,0,1,1-1.405,2.657,2.657,0,0,1,.577-.039l6.141,0V7.176c0-.251.009-.5.018-.748a9.625,9.625,0,0,0-.052-1.821A2.407,2.407,0,0,0,36.47,2.64q-4.406-.006-8.81-.008t-8.811.01A2.56,2.56,0,0,0,16.3,5.361c-.005,1.931,0,9.266,0,9.266,0,1.226-.44,1.662-1.68,1.662H5.467a2.6,2.6,0,0,0-2.831,2.819q0,14.385,0,28.77A2.626,2.626,0,0,0,5.5,50.73H36.217a2.465,2.465,0,0,1,.489.029,1.315,1.315,0,0,1,1.045,1.375,1.328,1.328,0,0,1-1.236,1.213c-.076.006-.153.008-.229.008ZM4.737,13.633h8.906V4.723Z" transform="translate(0 0.001)" fill="#fff"/>
      <path id="Path_38556" data-name="Path 38556" d="M12.009,32.748a1.253,1.253,0,0,1-.9-.384,1.3,1.3,0,0,1,.038-1.884c.907-.921,1.825-1.837,2.743-2.752l1.257-1.256c.1-.1.193-.2.3-.314l.583-.626L11.682,21.19c-.178-.173-.355-.347-.523-.529a1.313,1.313,0,0,1,.911-2.24,1.342,1.342,0,0,1,.934.4c.989.967,1.966,1.947,2.944,2.927l1.238,1.241c.053.053.713.661.713.661l.573-.522c.108-.1.215-.192.317-.294l3.881-3.877a1.688,1.688,0,0,1,1.149-.551,1.315,1.315,0,0,1,1.251,1.315,1.68,1.68,0,0,1-.542,1.081c-1.009,1.013-2.024,2.022-3.048,3.042L19.8,25.514l.551.608c.107.12.2.229.308.332,0,0,3.08,3.079,3.873,3.878a1.316,1.316,0,0,1,.141,1.977,1.229,1.229,0,0,1-.879.4,1.659,1.659,0,0,1-1.133-.542l-3.836-3.835c-.1-.1-.972-.913-.972-.913l-2.686,2.744c-.717.725-1.434,1.451-2.168,2.16a1.427,1.427,0,0,1-.989.428" transform="translate(2.924 5.02)" fill="#fff"/>
    </g>
  </g>
</svg>
