<svg xmlns="http://www.w3.org/2000/svg" width="36.25" height="36.392" viewBox="0 0 36.25 36.392">
  <g id="Stage_Rejection" data-name="Stage Rejection" transform="translate(-1)">
    <path id="Path_74704" data-name="Path 74704" d="M36.938,7.42,29.83.312A1.066,1.066,0,0,0,29.076,0H12.728a3.2,3.2,0,0,0-3.2,3.2V17.261A9.6,9.6,0,0,0,10.6,36.392H34.051a3.2,3.2,0,0,0,3.2-3.2V8.174a1.066,1.066,0,0,0-.312-.754Zm-6.8-3.78,2.316,2.317L33.61,7.108H30.142ZM3.132,26.8A7.463,7.463,0,1,1,10.6,34.26,7.472,7.472,0,0,1,3.132,26.8ZM34.051,34.26H16.619a9.591,9.591,0,0,0,3.512-6.4H31.208a1.066,1.066,0,1,0,0-2.132H20.132a9.536,9.536,0,0,0-1.561-4.265H31.208a1.066,1.066,0,0,0,0-2.132H16.619a9.552,9.552,0,0,0-4.958-2.073V3.2a1.067,1.067,0,0,1,1.066-1.066H28.01V8.174A1.066,1.066,0,0,0,29.076,9.24h6.042V33.194A1.067,1.067,0,0,1,34.051,34.26Z" fill="#fff"/>
    <path id="Path_74705" data-name="Path 74705" d="M207.7,182H192.066a1.066,1.066,0,1,0,0,2.132H207.7a1.066,1.066,0,1,0,0-2.132Z" transform="translate(-176.495 -169.064)" fill="#fff"/>
    <path id="Path_74706" data-name="Path 74706" d="M82.709,325.217a1.066,1.066,0,0,0,1.508-1.508l-2.445-2.445,2.445-2.445a1.066,1.066,0,0,0-1.508-1.508l-2.445,2.445-2.445-2.445a1.066,1.066,0,1,0-1.508,1.508l2.445,2.445-2.445,2.445a1.066,1.066,0,1,0,1.508,1.508l2.445-2.445Z" transform="translate(-69.669 -294.468)" fill="#fff"/>
  </g>
</svg>
