<svg xmlns="http://www.w3.org/2000/svg" xmlns:xlink="http://www.w3.org/1999/xlink" width="42.496" height="42.493" viewBox="0 0 42.496 42.493">
  <defs>
    <clipPath id="clip-path">
      <rect id="Rectangle_24921" data-name="Rectangle 24921" width="42.496" height="42.493" transform="translate(0 0)" fill="none"/>
    </clipPath>
  </defs>
  <g id="Still_Under_inspection" data-name="Still Under inspection" transform="translate(0 0)">
    <g id="Group_70818" data-name="Group 70818" clip-path="url(#clip-path)">
      <path id="Path_74712" data-name="Path 74712" d="M42.2,37.21l-9.07-9.08a1.02,1.02,0,0,0-1.43,0l-1.07,1.07-2.42-2.42.15-.17A16.112,16.112,0,0,0,16.126,0h-.01a16.12,16.12,0,1,0,10.49,28.36l.18-.15,2.41,2.42-1.07,1.06a1.02,1.02,0,0,0,0,1.43l9.08,9.08a1.02,1.02,0,0,0,1.43,0l3.56-3.56a1,1,0,0,0,0-1.43m-26.08-6.98a14.105,14.105,0,1,1,14.11-14.11,14.144,14.144,0,0,1-14.11,14.11m21.8,9.83-7.64-7.65,2.13-2.14,7.65,7.65Z" fill="#fff"/>
      <path id="Path_74713" data-name="Path 74713" d="M16.126,5.03a11.09,11.09,0,1,0,11.08,11.09A11.122,11.122,0,0,0,16.126,5.03m0,20.16h-.01a9.065,9.065,0,1,1,.01,0" fill="#fff"/>
      <path id="Path_74714" data-name="Path 74714" d="M21.876,14.31l-6.3,6.3a1,1,0,0,1-1.43,0l-3.78-3.77a1.02,1.02,0,0,1,0-1.43,1,1,0,0,1,1.43,0l3.06,3.06,5.59-5.58a1,1,0,0,1,.71-.3,1.022,1.022,0,0,1,.72.3,1.008,1.008,0,0,1,0,1.42" fill="#fff"/>
    </g>
  </g>
</svg>
