<svg id="Suspense_Amount" data-name="Suspense Amount" xmlns="http://www.w3.org/2000/svg" width="46.772" height="40.377" viewBox="0 0 46.772 40.377">
  <path id="Path_74846" data-name="Path 74846" d="M42.372,26l.075-.043-.075.032a1.12,1.12,0,0,0-.632-.578L41.7,25.4a1.161,1.161,0,0,0-1.456.642v.1l-.064.054a17.816,17.816,0,0,1-34.6-6,1.17,1.17,0,0,0-1.071-1.178l-.139.011a1.11,1.11,0,0,0-.792.332L.407,22.518a1.173,1.173,0,0,0-.118,1.659,1.161,1.161,0,0,0,.8.4,1.107,1.107,0,0,0,.856-.289.465.465,0,0,1,.075-.064l1.413-1.413.128.781A20.13,20.13,0,0,0,42.415,26.9a1.1,1.1,0,0,0-.043-.9m4.068-9.828a1.2,1.2,0,0,0-1.659-.032l-1.4,1.392-.15-.771A20.131,20.131,0,0,0,4.4,13.44a1.172,1.172,0,0,0,2.205.792,17.83,17.83,0,0,1,34.632,5.941A1.165,1.165,0,0,0,42.4,21.351a1.193,1.193,0,0,0,.835-.343l3.169-3.169a1.129,1.129,0,0,0,.364-.824,1.145,1.145,0,0,0-.332-.846" transform="translate(0)" fill="#fff" fill-rule="evenodd"/>
  <path id="Path_74847" data-name="Path 74847" d="M22.85,4.814a15.02,15.02,0,1,0,15.02,15.03A15.018,15.018,0,0,0,22.85,4.814m0,27.352A12.333,12.333,0,1,1,35.182,19.834,12.327,12.327,0,0,1,22.85,32.166" transform="translate(0.552 0.34)" fill="#fff"/>
  <path id="Path_74848" data-name="Path 74848" d="M26.493,15.5a.31.31,0,0,0-.219-.088H24.584a3.391,3.391,0,0,0-.632-1.422h2.3a.3.3,0,0,0,.309-.3.079.079,0,0,0,0-.022v-1a.3.3,0,0,0-.282-.321H18.029a.3.3,0,0,0-.321.284v.005a.121.121,0,0,0,0,.028v1.321a.321.321,0,0,0,.321.321h1.43q2.086,0,2.641,1.116H18.032a.3.3,0,0,0-.321.284v.006a.112.112,0,0,0,0,.027v1.007a.3.3,0,0,0,.291.315h4.244A1.932,1.932,0,0,1,21.233,18.3a4.452,4.452,0,0,1-2.1.428h-1.1a.321.321,0,0,0-.321.321v1.228a.3.3,0,0,0,.088.221q1.895,2.014,4.918,5.639a.287.287,0,0,0,.246.12H24.9a.286.286,0,0,0,.286-.179.269.269,0,0,0-.04-.336q-2.882-3.533-4.532-5.282a5.007,5.007,0,0,0,2.725-1.087,3.685,3.685,0,0,0,1.274-2.311h1.66a.3.3,0,0,0,.321-.286V15.727a.313.313,0,0,0-.1-.227Z" transform="translate(1.249 1.942)" fill="#fff"/>
</svg>
