<svg xmlns="http://www.w3.org/2000/svg" width="35.664" height="41.769" viewBox="0 0 35.664 41.769">
  <g id="Total_Calls" data-name="Total Calls" transform="translate(0 0)">
    <g id="Group_124" data-name="Group 124" transform="translate(0 0)">
      <path id="Path_1597" data-name="Path 1597" d="M4921.9,270.249l-.338-.115v-1.629a4.079,4.079,0,0,0-4.4-4.39l-8.266,0c-2.209,0-4.417,0-6.65-.013a4.527,4.527,0,0,0-3.416,1.423c-2.981,3.014-5.743,5.774-8.441,8.438a4.592,4.592,0,0,0-1.439,3.482q.022,8.648.01,17.3v6.708a4.1,4.1,0,0,0,4.416,4.42l23.983,0c.058,0,.118,0,.178-.005a1.038,1.038,0,0,0,.967-.951,1.028,1.028,0,0,0-.818-1.075,1.913,1.913,0,0,0-.382-.024h-24.047a2.057,2.057,0,0,1-2.243-2.232q0-11.262,0-22.523a2.034,2.034,0,0,1,2.216-2.207h7.159c.972,0,1.315-.341,1.316-1.3,0,0,0-5.741,0-7.253a2.006,2.006,0,0,1,2-2.129q3.448-.007,6.9-.007t6.9.006a1.886,1.886,0,0,1,1.917,1.538,7.614,7.614,0,0,1,.04,1.427c-.007.193-.014.39-.014.585v.5h-4.808a2.084,2.084,0,0,0-.452.031,1.019,1.019,0,0,0-.783,1.1,1.029,1.029,0,0,0,1.031.915q1.452.009,2.906.007l3.809,0a2.467,2.467,0,0,1,.258.012,1.258,1.258,0,0,1-.017,2.508c-.09.009-.181.013-.272.013l-.255,0c-1.025,0-1.353.331-1.353,1.356v25.407c0,.093,0,.186,0,.279a1.026,1.026,0,0,0,2.047.026c.009-.114.007-.227.005-.342V276.955l.334-.117c1.8-.633,2.718-1.742,2.718-3.3C4924.621,271.971,4923.708,270.863,4921.9,270.249Zm-22.269,4.529h-6.973l6.973-6.974Z" transform="translate(-4888.955 -264.106)" fill="#fff"/>
      <rect id="Rectangle_327" data-name="Rectangle 327" width="15.456" height="2.031" rx="0.908" transform="translate(8.581 19.07)" fill="#fff"/>
      <rect id="Rectangle_328" data-name="Rectangle 328" width="15.456" height="2.031" rx="0.908" transform="translate(8.581 25.219)" fill="#fff"/>
      <rect id="Rectangle_329" data-name="Rectangle 329" width="15.456" height="2.031" rx="0.908" transform="translate(8.581 31.369)" fill="#fff"/>
    </g>
  </g>
</svg>
