<svg id="Total_No._of_outstanding_bills" data-name="Total No. of  outstanding bills" xmlns="http://www.w3.org/2000/svg" width="37.676" height="51.962" viewBox="0 0 37.676 51.962">
  <g id="Group_70921" data-name="Group 70921" transform="translate(1 1)">
    <path id="Path_74922" data-name="Path 74922" d="M36.676,50.209a.606.606,0,0,1-.153.4.6.6,0,0,1-.848.042L33.2,48.429a1.456,1.456,0,0,0-1.947,0l-2.045,1.836a2.151,2.151,0,0,1-2.879,0l-2.045-1.836a1.456,1.456,0,0,0-1.947,0l-2.045,1.836a2.154,2.154,0,0,1-2.879,0l-2.045-1.836a1.456,1.456,0,0,0-1.947,0l-2.043,1.835a2.157,2.157,0,0,1-2.88,0L5.951,47.984a.7.7,0,0,0-.974,0L2.113,50.571a.666.666,0,0,1-.459.167A.656.656,0,0,1,1,50.07V2.627A1.628,1.628,0,0,1,2.627,1H35.042a1.634,1.634,0,0,1,1.634,1.626Z" transform="translate(-1 -1)" fill="none" stroke="#fff" stroke-linecap="round" stroke-linejoin="round" stroke-width="2"/>
    <line id="Line_779" data-name="Line 779" x2="11.861" transform="translate(5.565 17.46)" fill="none" stroke="#fff" stroke-linecap="round" stroke-linejoin="round" stroke-width="2"/>
    <line id="Line_780" data-name="Line 780" x2="3.988" transform="translate(25.732 17.46)" fill="none" stroke="#fff" stroke-linecap="round" stroke-linejoin="round" stroke-width="2"/>
    <line id="Line_781" data-name="Line 781" x2="11.861" transform="translate(5.565 10.506)" fill="none" stroke="#fff" stroke-linecap="round" stroke-linejoin="round" stroke-width="2"/>
    <line id="Line_782" data-name="Line 782" x2="3.988" transform="translate(25.732 10.506)" fill="none" stroke="#fff" stroke-linecap="round" stroke-linejoin="round" stroke-width="2"/>
    <line id="Line_783" data-name="Line 783" x2="11.861" transform="translate(5.565 24.229)" fill="none" stroke="#fff" stroke-linecap="round" stroke-linejoin="round" stroke-width="2"/>
    <line id="Line_784" data-name="Line 784" x2="3.988" transform="translate(25.732 24.229)" fill="none" stroke="#fff" stroke-linecap="round" stroke-linejoin="round" stroke-width="2"/>
    <line id="Line_785" data-name="Line 785" x2="25.731" transform="translate(4.972 41.89)" fill="none" stroke="#fff" stroke-linecap="round" stroke-linejoin="round" stroke-width="2"/>
    <line id="Line_786" data-name="Line 786" x2="5.563" transform="translate(24.342 33.585)" fill="none" stroke="#fff" stroke-linecap="round" stroke-linejoin="round" stroke-width="2"/>
    <path id="Path_74923" data-name="Path 74923" d="M7.564,23.147h7.2a2.563,2.563,0,0,1,0,5.127h-7.2a2.563,2.563,0,0,1,0-5.127Z" transform="translate(0.564 7.657)" fill="none" stroke="#fff" stroke-linecap="round" stroke-linejoin="round" stroke-width="2"/>
  </g>
</svg>
