<svg xmlns="http://www.w3.org/2000/svg" width="29.584" height="40.457" viewBox="0 0 29.584 40.457">
  <g id="Total_Ndmber_of_NC_Isued_a_ainst_IE" data-name="Total Ndmber of NC Isued a ainst IE" transform="translate(-9.204 -16.679)">
    <g id="Group_70879" data-name="Group 70879" transform="translate(9.354 16.829)">
      <path id="Path_74738" data-name="Path 74738" d="M11.892,56.986H32.025a.474.474,0,0,0,0-.948H11.892a1.592,1.592,0,0,1-1.59-1.59V25.2a1.592,1.592,0,0,1,1.59-1.59h3.1v2.125a1.676,1.676,0,0,0,1.674,1.674H29.886a1.676,1.676,0,0,0,1.674-1.674V23.612h3.1a1.592,1.592,0,0,1,1.59,1.59V35.858a.474.474,0,0,0,.948,0V25.2a2.541,2.541,0,0,0-2.538-2.538h-3.1V20.88a1.676,1.676,0,0,0-1.674-1.674H27.931v-.7a1.68,1.68,0,0,0-1.678-1.678H20.3a1.68,1.68,0,0,0-1.678,1.678v.7H16.665A1.676,1.676,0,0,0,14.99,20.88v1.783h-3.1A2.541,2.541,0,0,0,9.354,25.2V54.447a2.541,2.541,0,0,0,2.538,2.538ZM15.939,20.88a.727.727,0,0,1,.726-.726h2.429a.474.474,0,0,0,.474-.474V18.507a.731.731,0,0,1,.73-.73h5.954a.731.731,0,0,1,.73.73v1.173a.474.474,0,0,0,.474.474h2.429a.727.727,0,0,1,.726.726v4.856a.727.727,0,0,1-.726.726H16.665a.727.727,0,0,1-.726-.726Z" transform="translate(-9.354 -16.829)" fill="#fff" stroke="#fff" stroke-width="0.3"/>
      <path id="Path_74739" data-name="Path 74739" d="M77.877,172.811H59.286a.474.474,0,1,0,0,.948h18.59a.474.474,0,1,0,0-.948Z" transform="translate(-54.66 -159.716)" fill="#fff" stroke="#fff" stroke-width="0.3"/>
      <path id="Path_74741" data-name="Path 74741" d="M179.3,232.7H161.014a.474.474,0,1,0,0,.948H179.3a.474.474,0,1,0,0-.948Z" transform="translate(-156.086 -214.581)" fill="#fff" stroke="#fff" stroke-width="0.3"/>
      <path id="Path_74742" data-name="Path 74742" d="M59.286,293.544H71.33a.474.474,0,0,0,0-.948H59.286a.474.474,0,0,0,0,.948Z" transform="translate(-54.66 -269.445)" fill="#fff" stroke="#fff" stroke-width="0.3"/>
      <path id="Path_74743" data-name="Path 74743" d="M246.353,293.07a.474.474,0,0,0-.474-.474h-4.194a.474.474,0,0,0,0,.948h4.194A.474.474,0,0,0,246.353,293.07Z" transform="translate(-222.663 -269.445)" fill="#fff" stroke="#fff" stroke-width="0.3"/>
      <path id="Path_74744" data-name="Path 74744" d="M136.277,352.963a.474.474,0,0,0-.474-.474H120.328a.474.474,0,1,0,0,.948H135.8A.474.474,0,0,0,136.277,352.963Z" transform="translate(-115.183 -324.31)" fill="#fff" stroke="#fff" stroke-width="0.3"/>
      <g id="Group_70878" data-name="Group 70878" transform="translate(17.75 19.662)">
        <path id="Path_74747" data-name="Path 74747" d="M339.4,309.34a2.075,2.075,0,0,0-2.068,2.22l.388,5.437a1.684,1.684,0,0,0,3.36,0l.388-5.437A2.074,2.074,0,0,0,339.4,309.34Zm.634,7.583a.636.636,0,0,1-1.268,0l-.387-5.437a1.023,1.023,0,1,1,2.044,0Z" transform="translate(-329.941 -304.446)" fill="#fff" stroke="#fff" stroke-width="0.3"/>
        <path id="Path_74748" data-name="Path 74748" d="M340.213,419.859a1.99,1.99,0,1,0,1.99,1.99A1.992,1.992,0,0,0,340.213,419.859Zm0,2.931a.941.941,0,1,1,.941-.941A.942.942,0,0,1,340.213,422.79Z" transform="translate(-330.754 -404.706)" fill="#fff" stroke="#fff" stroke-width="0.3"/>
      </g>
      <path id="Path_74749" data-name="Path 74749" d="M59.286,411.228H74.04a.474.474,0,1,0,0-.948H59.286a.474.474,0,1,0,0,.948Z" transform="translate(-54.66 -377.25)" fill="#fff" stroke="#fff" stroke-width="0.3"/>
    </g>
  </g>
</svg>
