<svg xmlns="http://www.w3.org/2000/svg" width="39.339" height="39.333" viewBox="0 0 39.339 39.333">
  <g id="Total_Consignee" data-name="Total Consignee" transform="translate(0.005 0)">
    <path id="Path_74707" data-name="Path 74707" d="M37.417,1.917A6.5,6.5,0,0,0,32.783,0H3.934A4.376,4.376,0,0,0,0,4.585v5.9A5.248,5.248,0,0,0,5.25,15.733h1.3V32.781a6.551,6.551,0,0,0,6.564,6.551H32.783a6.551,6.551,0,0,0,6.551-6.551V6.551a6.5,6.5,0,0,0-1.917-4.634ZM5.25,13.115a2.63,2.63,0,0,1-2.63-2.63v-5.9a1.967,1.967,0,0,1,3.933,0V13.1ZM36.716,32.781a3.933,3.933,0,0,1-3.933,3.933H13.116a3.933,3.933,0,0,1-3.933-3.933V4.585a4.536,4.536,0,0,0-.455-1.967H32.783a3.933,3.933,0,0,1,3.933,3.933Z" transform="translate(0 0)" fill="#f5f7fa"/>
    <path id="Path_74708" data-name="Path 74708" d="M15.152,9.019h9.182a1.315,1.315,0,1,0,0-2.618H15.152a1.315,1.315,0,0,0,0,2.618Z" transform="translate(3.201 1.465)" fill="#f5f7fa"/>
    <path id="Path_74709" data-name="Path 74709" d="M28.8,12.8H13.069a1.315,1.315,0,1,0,0,2.618H28.8a1.315,1.315,0,1,0,0-2.618Z" transform="translate(2.665 2.932)" fill="#f5f7fa"/>
    <path id="Path_74710" data-name="Path 74710" d="M28.755,18.131H13.022a1.315,1.315,0,0,0,0,2.618H28.755a1.315,1.315,0,1,0,0-2.618Z" transform="translate(2.713 4.153)" fill="#f5f7fa"/>
    <path id="Path_74711" data-name="Path 74711" d="M21.653,23.471h-8.6a1.315,1.315,0,1,0,0,2.618h8.6a1.315,1.315,0,1,0,0-2.618Z" transform="translate(2.661 5.377)" fill="#f5f7fa"/>
  </g>
</svg>
