<svg id="Total_outstanding_amount" data-name="Total outstanding amount" xmlns="http://www.w3.org/2000/svg" width="44.031" height="43.254" viewBox="0 0 44.031 43.254">
  <path id="Path_74844" data-name="Path 74844" d="M32.587,17.237a2.9,2.9,0,0,0,1.534-2.493,3.139,3.139,0,0,0-3.3-2.948h-.252l5.6-8.335a.883.883,0,0,0,.011-.989,1.113,1.113,0,0,0-.959-.5,4.493,4.493,0,0,1-2.685-.817,7.238,7.238,0,0,0-7.832,0,4.5,4.5,0,0,1-2.694.817,4.493,4.493,0,0,1-2.685-.817A6.84,6.84,0,0,0,15.41,0a6.79,6.79,0,0,0-3.916,1.151A4.5,4.5,0,0,1,8.8,1.968a1.137,1.137,0,0,0-.959.5.9.9,0,0,0,.02.989l5.6,8.335h-.252A3.148,3.148,0,0,0,9.9,14.745a2.888,2.888,0,0,0,1.545,2.493C7.518,19.781,0,25.664,0,33.425c0,8.669,11.131,9.829,22.01,9.829s22.021-1.16,22.021-9.829c0-7.761-7.519-13.645-11.444-16.188M10.606,3.724a7.1,7.1,0,0,0,2.109-.939,4.5,4.5,0,0,1,2.694-.817,4.55,4.55,0,0,1,2.7.817A6.773,6.773,0,0,0,22.01,3.936a6.79,6.79,0,0,0,3.916-1.151,4.852,4.852,0,0,1,5.39,0,7.077,7.077,0,0,0,2.108.939L28,11.8H25.957a11.865,11.865,0,0,1,1.927-4.37.922.922,0,0,0-.3-1.362,1.176,1.176,0,0,0-1.525.272A13.447,13.447,0,0,0,23.736,11.8H20.295a13.443,13.443,0,0,0-2.322-5.459,1.175,1.175,0,0,0-1.523-.272.915.915,0,0,0-.3,1.362,11.858,11.858,0,0,1,1.928,4.37H16.036Zm2.6,10.041h17.61a.991.991,0,1,1,0,1.969H13.211a.991.991,0,1,1,0-1.969m8.8,27.521c-14.068,0-19.81-2.271-19.81-7.861C2.2,24.988,12.877,18.67,14.623,17.7H29.408c1.745.968,12.423,7.286,12.423,15.723,0,5.59-5.742,7.861-19.821,7.861" fill="#fff"/>
  <path id="Path_74845" data-name="Path 74845" d="M25.731,24.274a.329.329,0,0,0-.234-.094H23.7a3.629,3.629,0,0,0-.674-1.516h2.454a.323.323,0,0,0,.33-.317.093.093,0,0,0,0-.024V21.254a.322.322,0,0,0-.309-.338.129.129,0,0,0-.029,0h-8.76a.323.323,0,0,0-.338.308.138.138,0,0,0,0,.03v1.408a.343.343,0,0,0,.338.338h1.526q2.223,0,2.817,1.19H16.709a.324.324,0,0,0-.338.309.129.129,0,0,0,0,.029V25.6a.323.323,0,0,0,.311.336.11.11,0,0,0,.026,0h4.5a2.061,2.061,0,0,1-1.08,1.318,4.755,4.755,0,0,1-2.237.453H16.716a.343.343,0,0,0-.339.338v1.319a.321.321,0,0,0,.094.235q2.021,2.147,5.244,6.013a.308.308,0,0,0,.263.128h2.053a.3.3,0,0,0,.305-.191.287.287,0,0,0-.042-.359q-3.074-3.769-4.832-5.632A5.343,5.343,0,0,0,22.368,28.4a3.93,3.93,0,0,0,1.359-2.464H25.5a.324.324,0,0,0,.338-.309V24.516a.33.33,0,0,0-.1-.242" transform="translate(0.913 1.166)" fill="#fff"/>
</svg>
