<svg xmlns="http://www.w3.org/2000/svg" width="34.279" height="47" viewBox="0 0 34.279 47">
  <path id="Total_No_of_Bills_Submitted_to_Railways" data-name="Total No of Bills Submitted to Railways" d="M31.55,47a1.032,1.032,0,0,1-.925-.561l-.562-1.1H4.218l-.562,1.1A1.032,1.032,0,0,1,2.731,47h0a1.03,1.03,0,0,1-.879-.482,1,1,0,0,1-.045-.988l.832-1.635q.014-.03.03-.06L5.2,38.868l0-.008.943-1.853H6.121A6.085,6.085,0,0,1,0,30.995V6.013A6.086,6.086,0,0,1,6.121,0H28.16a6.084,6.084,0,0,1,6.12,6.013V30.995a6.083,6.083,0,0,1-6.12,6.012h-.023l.936,1.84q.013.023.024.047L31.6,43.82a1.007,1.007,0,0,1,.047.092l.823,1.618a.99.99,0,0,1-.045.988,1.029,1.029,0,0,1-.879.482Zm-2.521-3.7-1.508-2.964H6.761L5.252,43.3Zm-2.542-5-.661-1.3H8.457l-.662,1.3ZM6.121,34.975H28.16a4.082,4.082,0,0,0,2.988-1.3H3.132A4.083,4.083,0,0,0,6.121,34.975Zm26.037-3.331a3.922,3.922,0,0,0,.055-.65V6.013a4.027,4.027,0,0,0-4.052-3.98H6.121a4.026,4.026,0,0,0-4.052,3.98V30.995a3.921,3.921,0,0,0,.055.649Zm-8.424-6.479a3.578,3.578,0,1,1,3.578,3.513A3.55,3.55,0,0,1,23.734,25.166Zm2.068,0a1.509,1.509,0,1,0,1.51-1.482A1.5,1.5,0,0,0,25.8,25.166Zm-22.411,0a3.578,3.578,0,1,1,3.578,3.513A3.55,3.55,0,0,1,3.391,25.166Zm2.068,0a1.509,1.509,0,1,0,1.509-1.482A1.5,1.5,0,0,0,5.459,25.166ZM14.6,27.847a1.016,1.016,0,1,1,0-2.031h5.086a1.016,1.016,0,1,1,0,2.031ZM12.9,24.515a1.016,1.016,0,1,1,0-2.031H21.38a1.016,1.016,0,1,1,0,2.031Zm4.237-5.828H6.121a2.714,2.714,0,0,1-2.73-2.682V9.343A2.712,2.712,0,0,1,6.12,6.662H28.16a2.712,2.712,0,0,1,2.729,2.681v6.662a2.713,2.713,0,0,1-2.729,2.682Zm11.02-2.032a.656.656,0,0,0,.661-.649V9.343a.657.657,0,0,0-.661-.649H18.175v7.961ZM5.459,9.343v6.662a.657.657,0,0,0,.662.649h9.985V8.694H6.121A.658.658,0,0,0,5.459,9.343ZM12.9,5.362a1.016,1.016,0,1,1,0-2.031H21.38a1.016,1.016,0,1,1,0,2.031Zm10.708-.906a.808.808,0,1,1,.807.793A.8.8,0,0,1,23.611,4.456ZM8.7,4.456a.808.808,0,1,1,.807.793A.8.8,0,0,1,8.7,4.456Z" fill="#fff"/>
</svg>
