<svg xmlns="http://www.w3.org/2000/svg" width="37.498" height="52.979" viewBox="0 0 37.498 52.979">
  <g id="Total_No._of_Passed_Bills" data-name="Total No. of Passed Bills" transform="translate(-6.5 -6.749)">
    <g id="Group_70889" data-name="Group 70889" transform="translate(7.5 7.499)">
      <path id="Path_74773" data-name="Path 74773" d="M31.534,45.089H9.031A1.531,1.531,0,0,0,7.5,46.62V91.079a.621.621,0,0,0,1.038.462l2.688-2.426a.679.679,0,0,1,.908,0l2.378,2.146a2.013,2.013,0,0,0,2.7,0l1.917-1.729a1.366,1.366,0,0,1,1.831,0l1.917,1.729a2.013,2.013,0,0,0,2.7,0l1.917-1.729a1.366,1.366,0,0,1,1.831,0l1.917,1.729a2.014,2.014,0,0,0,2.7,0l1.915-1.729a1.366,1.366,0,0,1,1.831,0L40,91.625a.566.566,0,0,0,.945-.421L40.7,51.737" transform="translate(-7.5 -40.685)" fill="none" stroke="#fff" stroke-linecap="round" stroke-linejoin="round" stroke-width="2"/>
      <g id="Group_70899" data-name="Group 70899" transform="translate(5.214 22.158)">
        <line id="Line_767" data-name="Line 767" x2="11.115" fill="none" stroke="#fff" stroke-linecap="round" stroke-linejoin="round" stroke-width="2"/>
        <line id="Line_768" data-name="Line 768" x2="3.737" transform="translate(18.899)" fill="none" stroke="#fff" stroke-linecap="round" stroke-linejoin="round" stroke-width="2"/>
      </g>
      <g id="Group_70900" data-name="Group 70900" transform="translate(5.214 15.641)">
        <line id="Line_769" data-name="Line 769" x2="11.115" fill="none" stroke="#fff" stroke-linecap="round" stroke-linejoin="round" stroke-width="2"/>
        <line id="Line_770" data-name="Line 770" x2="3.737" transform="translate(18.899)" fill="none" stroke="#fff" stroke-linecap="round" stroke-linejoin="round" stroke-width="2"/>
      </g>
      <g id="Group_70898" data-name="Group 70898" transform="translate(5.214 27.371)">
        <line id="Line_771" data-name="Line 771" x2="11.115" fill="none" stroke="#fff" stroke-linecap="round" stroke-linejoin="round" stroke-width="2"/>
        <line id="Line_772" data-name="Line 772" x2="3.737" transform="translate(18.899)" fill="none" stroke="#fff" stroke-linecap="round" stroke-linejoin="round" stroke-width="2"/>
      </g>
      <line id="Line_775" data-name="Line 775" x2="24.113" transform="translate(5.214 43.663)" fill="none" stroke="#fff" stroke-linecap="round" stroke-linejoin="round" stroke-width="2"/>
      <g id="Group_70890" data-name="Group 70890" transform="translate(5.214 33.888)">
        <line id="Line_776" data-name="Line 776" x2="5.214" transform="translate(17.596 2.607)" fill="none" stroke="#fff" stroke-linecap="round" stroke-linejoin="round" stroke-width="2"/>
        <rect id="Rectangle_24938" data-name="Rectangle 24938" width="11.556" height="4.804" rx="2.402" fill="none" stroke="#fff" stroke-linecap="round" stroke-linejoin="round" stroke-width="2"/>
      </g>
      <path id="Path_74774" data-name="Path 74774" d="M215.574,13.186A5.687,5.687,0,1,0,221.261,7.5,5.687,5.687,0,0,0,215.574,13.186Z" transform="translate(-191.199 -7.499)" fill="none" stroke="#fff" stroke-linecap="round" stroke-linejoin="round" stroke-width="1.5"/>
      <line id="Line_777" data-name="Line 777" x1="2.993" y2="2.994" transform="translate(29.441 4.174)" fill="none" stroke="#fff" stroke-linecap="round" stroke-linejoin="round" stroke-width="1"/>
      <line id="Line_778" data-name="Line 778" x1="1.518" y1="1.519" transform="translate(27.691 5.879)" fill="none" stroke="#fff" stroke-linecap="round" stroke-linejoin="round" stroke-width="1"/>
    </g>
  </g>
</svg>
